<svg width="41" height="38" viewBox="0 0 41 38" fill="none" xmlns="http://www.w3.org/2000/svg">
<g clip-path="url(#clip0_225_6421)" filter="url(#filter0_d_225_6421)">
<path d="M16.4172 17.0625C14.8558 17.3312 13.3436 17.7955 11.9243 18.4415L11.9191 18.4439L11.9087 18.449L11.9049 18.451L11.9048 18.4509L11.8836 18.4605L11.8829 18.4609L11.8829 18.4609C10.8127 18.9404 10.1832 20.2053 9.84689 21.6857C9.51256 23.1576 9.47807 24.8005 9.5636 25.9721L9.56671 26.0142L9.56764 26.0267L9.56701 26.0267L9.5659 26.0688L9.56589 26.069L9.56519 26.0976C9.5735 26.1747 9.62159 26.2771 9.73422 26.4017C9.84825 26.5279 10.0191 26.6662 10.2497 26.8107C10.7105 27.0995 11.3946 27.4034 12.2958 27.6801C14.0971 28.2331 16.7498 28.6727 20.1786 28.6727C23.6134 28.6727 26.2694 28.2315 28.0708 27.677C28.9721 27.3996 29.6554 27.095 30.1146 26.8059C30.3443 26.6613 30.5141 26.5229 30.6268 26.3969C30.7376 26.273 30.7843 26.1715 30.7918 26.0953L16.4172 17.0625ZM16.4172 17.0625L18.8465 18.8071V18.8074L18.8986 18.8448C19.2639 19.1068 19.7148 19.2487 20.1783 19.2487C20.6418 19.2487 21.093 19.1068 21.4581 18.8448L21.4581 18.8448L23.9397 17.0625C25.4998 17.3311 27.0108 17.7946 28.4287 18.4397L28.4472 18.449L28.4471 18.4491L28.453 18.4517L28.4738 18.4609C28.4739 18.461 28.474 18.461 28.4741 18.461C29.5441 18.9408 30.1736 20.2057 30.5099 21.6859C30.8442 23.1578 30.8787 24.8006 30.7931 25.9721L30.79 26.0143L30.7894 26.0142L30.7897 26.0268L30.7908 26.0685L16.4172 17.0625ZM16.3132 15.8652C14.5743 16.1502 12.8906 16.6626 11.3154 17.3868C9.57407 18.1677 8.80568 20.1429 8.47387 21.987C8.14277 23.8271 8.23725 25.5864 8.27007 26.043C8.27005 26.0432 8.27002 26.0434 8.26999 26.0436L8.26992 26.0443C8.26933 26.0492 8.26798 26.0605 8.26798 26.0732C8.26798 26.6384 8.63558 27.1536 9.24504 27.6022C9.85702 28.0527 10.7346 28.4531 11.8077 28.7873C13.9555 29.456 16.915 29.8677 20.1785 29.8677C23.442 29.8677 26.4015 29.456 28.5493 28.7873C29.6224 28.4531 30.5 28.0527 31.1119 27.6022C31.7214 27.1536 32.089 26.6384 32.089 26.0732C32.089 26.0605 32.0877 26.0491 32.0871 26.0443L32.087 26.0436C32.087 26.0434 32.0869 26.0432 32.0869 26.043C32.1199 25.5864 32.2143 23.8271 31.8832 21.9869C31.5514 20.1427 30.7829 18.1675 29.0417 17.3868C27.4664 16.6627 25.7827 16.1502 24.0438 15.8652L24.0438 15.8652C23.9857 15.8557 23.9266 15.8507 23.8672 15.8507L23.8668 15.8507C23.6401 15.8513 23.4188 15.9212 23.239 16.0507C23.2389 16.0508 23.2389 16.0508 23.2389 16.0508L20.6613 17.9021L20.6612 17.9021C20.5254 17.9997 20.3552 18.0538 20.1783 18.0538C20.0014 18.0538 19.8313 17.9997 19.6954 17.9021L19.6954 17.9021L16.3132 15.8652Z" fill="#AE9368" stroke="#AE9368" stroke-width="0.25"/>
<path d="M20.3035 0.759425V0.758667H20.1785C17.9203 0.758667 16.2608 1.56614 15.1682 2.88247C14.0785 4.19535 13.564 6.00081 13.564 7.98049C13.564 11.9582 16.5151 15.2023 20.1785 15.2023C23.842 15.2023 26.7931 11.9582 26.7931 7.98049C26.7931 6.00373 26.3335 4.19777 25.2702 2.88365C24.2223 1.58849 22.6011 0.787408 20.3035 0.759425ZM20.1785 1.9534C22.3922 1.9534 23.7115 2.77351 24.4837 3.92175C25.2619 5.0788 25.497 6.58735 25.497 7.98059C25.497 11.3186 23.0972 14.0078 20.1785 14.0078C17.2601 14.0078 14.86 11.3188 14.86 7.98059C14.86 7.06352 14.9922 5.55154 15.7229 4.27283C16.4476 3.00454 17.7673 1.9534 20.1785 1.9534Z" fill="#AE9368" stroke="#AE9368" stroke-width="0.25"/>
</g>
<defs>
<filter id="filter0_d_225_6421" x="-3.79102" y="0.883667" width="47.9392" height="44.0742" filterUnits="userSpaceOnUse" color-interpolation-filters="sRGB">
<feFlood flood-opacity="0" result="BackgroundImageFix"/>
<feColorMatrix in="SourceAlpha" type="matrix" values="0 0 0 0 0 0 0 0 0 0 0 0 0 0 0 0 0 0 127 0" result="hardAlpha"/>
<feOffset dy="4"/>
<feGaussianBlur stdDeviation="2"/>
<feBlend mode="normal" in="SourceGraphic" in2="effect1_dropShadow_225_6421" result="shape"/>
</filter>
<clipPath id="clip0_225_6421">
<rect width="39.9393" height="36.0742" fill="white" transform="translate(0.208984 0.883667)"/>
</clipPath>
</defs>
</svg>
