<svg width="17" height="20" viewBox="0 0 17 20" fill="none" xmlns="http://www.w3.org/2000/svg">
<path d="M5.97792 10.6759L7.68408 11.8818C7.91611 12.0456 8.2036 12.135 8.49995 12.135C8.79629 12.135 9.08396 12.0457 9.31581 11.8819L11.022 10.676C12.0967 10.8551 13.1377 11.1677 14.114 11.6049L14.128 11.6119L14.1425 11.6182C15.6671 12.2908 15.8767 15.1273 15.7601 16.6973L15.758 16.7254L15.7587 16.7535C15.7589 16.7604 15.7592 16.7673 15.7597 16.7742C15.7166 17.3938 13.1577 18.5711 8.50012 18.5711C3.85072 18.5711 1.29266 17.3981 1.24059 16.7776L1.2412 16.7535L1.24195 16.7254L1.23984 16.6973C1.12337 15.1272 1.3328 12.2905 2.85745 11.6182L2.87176 11.6118L2.88487 11.6053C3.86165 11.1678 4.90289 10.8549 5.97792 10.6759ZM6.00658 10.0405C5.97117 10.0405 5.93562 10.0435 5.90066 10.0492C4.73237 10.2377 3.6013 10.5765 2.54328 11.0552C0.271041 12.0576 0.491323 16.1569 0.534407 16.7387C0.534256 16.7454 0.53275 16.7518 0.53275 16.7585C0.53275 18.1068 4.09984 19.1998 8.50007 19.1998C12.9003 19.1998 16.4674 18.1068 16.4674 16.7585C16.4674 16.7518 16.4659 16.7454 16.4657 16.7387C16.509 16.1571 16.7291 12.0573 14.4568 11.0552C13.3988 10.5765 12.2678 10.2377 11.0995 10.0492C11.0645 10.0436 11.0291 10.0407 10.9937 10.0407C10.8573 10.0411 10.7251 10.0824 10.6184 10.1581L8.87573 11.3899C8.7689 11.4654 8.63646 11.5064 8.49996 11.5064C8.36345 11.5064 8.23101 11.4654 8.12418 11.3899L6.38153 10.1581C6.27485 10.0824 6.14309 10.0409 6.00658 10.0405Z" fill="#ACB1C0" stroke="#ACB1C0" stroke-width="0.2"/>
<path d="M8.60015 -0.099294V-0.1H8.50015C6.97007 -0.1 5.84373 0.438553 5.10165 1.31844C4.36172 2.19576 4.01304 3.40136 4.01304 4.72149C4.01304 7.37727 6.01515 9.54297 8.50015 9.54297C10.9852 9.54297 12.9873 7.37724 12.9873 4.72149C12.9873 3.40374 12.676 2.19772 11.9538 1.31938C11.2442 0.456222 10.1485 -0.0773216 8.60015 -0.099294ZM8.50015 0.728526C9.99284 0.728526 10.8796 1.2725 11.3981 2.03124C11.9214 2.79681 12.0801 3.7962 12.0801 4.72155C12.0801 6.93342 10.4644 8.71458 8.50015 8.71458C6.53607 8.71458 4.92021 6.93359 4.92021 4.72155C4.92021 4.11264 5.00949 3.1105 5.50115 2.26375C5.988 1.42528 6.87496 0.728526 8.50015 0.728526Z" fill="#ACB1C0" stroke="#ACB1C0" stroke-width="0.2"/>
</svg>
