<svg width="24" height="24" viewBox="0 0 24 24" fill="none" xmlns="http://www.w3.org/2000/svg">
<path fill-rule="evenodd" clip-rule="evenodd" d="M2 12.0017C2 12.1672 2.06314 12.3327 2.18942 12.459L9.73433 20.0039C9.98688 20.2564 10.3964 20.2564 10.6489 20.0039C10.9015 19.7513 10.9015 19.3419 10.6489 19.0893L4.20799 12.6484H21.2814C21.6783 12.6484 22 12.3588 22 12.0017C22 11.6445 21.6783 11.355 21.2814 11.355H4.20799L10.6489 4.91406C10.9015 4.6615 10.9015 4.25203 10.6489 3.99947C10.3964 3.74692 9.98688 3.74692 9.73433 3.99947L2.18942 11.5444C2.06314 11.6707 2 11.8362 2 12.0017Z" fill="white"/>
</svg>
