<svg width="39" height="40" viewBox="0 0 39 40" fill="none" xmlns="http://www.w3.org/2000/svg">
<path d="M31.6129 5.54667H31.2298V3.23109C31.2298 2.37676 30.5348 1.68174 29.6805 1.68174H28.7142C27.8599 1.68174 27.1649 2.37676 27.1649 3.23109V5.54667H11.9051V3.23109C11.9051 2.37676 11.2101 1.68174 10.3558 1.68174H9.38956C8.53522 1.68174 7.84021 2.37676 7.84021 3.23109V5.54667H7.45709C6.06984 5.54667 4.9415 6.67501 4.9415 8.06226V28.3532C4.9415 29.7404 6.06984 30.8688 7.45709 30.8688H31.6129C33.0002 30.8688 34.1285 29.7404 34.1285 28.3532V8.06226C34.1285 6.67501 33.0002 5.54667 31.6129 5.54667ZM28.3311 3.23109C28.3311 3.01974 28.5029 2.84797 28.7142 2.84797H29.6805C29.8918 2.84797 30.0636 3.01974 30.0636 3.23109V8.06226C30.0636 8.27361 29.8918 8.44537 29.6805 8.44537H28.7142C28.5029 8.44537 28.3311 8.27361 28.3311 8.06226V3.23109ZM9.00644 3.23109C9.00644 3.01974 9.17821 2.84797 9.38956 2.84797H10.3558C10.5671 2.84797 10.7389 3.01974 10.7389 3.23109V8.06226C10.7389 8.2736 10.5671 8.44537 10.3558 8.44537H9.38956C9.17821 8.44537 9.00644 8.27361 9.00644 8.06226V3.23109ZM7.45709 6.71291H7.84021V8.06226C7.84021 8.91659 8.53522 9.61161 9.38956 9.61161H10.3558C11.2101 9.61161 11.9051 8.91659 11.9051 8.06226V6.71291H27.1649V8.06226C27.1649 8.91659 27.8599 9.61161 28.7142 9.61161H29.6805C30.5348 9.61161 31.2298 8.91659 31.2298 8.06226V6.71291H31.6129C32.3568 6.71291 32.9623 7.31838 32.9623 8.06226V13.2765H6.10774V8.06226C6.10774 7.31838 6.71321 6.71291 7.45709 6.71291ZM31.6129 29.7025H7.45709C6.71321 29.7025 6.10774 29.097 6.10774 28.3532V14.4428H32.9623V28.3532C32.9623 29.097 32.3568 29.7025 31.6129 29.7025Z" fill="#AE9368" stroke="#AE9368" stroke-width="0.2"/>
<path d="M14.2207 12.0272H24.8492C25.1717 12.0272 25.4324 11.7665 25.4324 11.4441V8.54537C25.4324 8.22292 25.1717 7.96226 24.8492 7.96226H14.2207C13.8982 7.96226 13.6375 8.22292 13.6375 8.54537V11.4441C13.6375 11.7665 13.8982 12.0272 14.2207 12.0272ZM14.8038 9.12849H24.2661V10.861H14.8038V9.12849Z" fill="#AE9368" stroke="#AE9368" stroke-width="0.2"/>
<path d="M11.322 15.6921H8.4233C8.10085 15.6921 7.84019 15.9528 7.84019 16.2752V18.6908C7.84019 19.0133 8.10085 19.2739 8.4233 19.2739H11.322C11.6445 19.2739 11.9051 19.0133 11.9051 18.6908V16.2752C11.9051 15.9528 11.6445 15.6921 11.322 15.6921ZM10.7389 18.1077H9.00642V16.8583H10.7389V18.1077Z" fill="#AE9368" stroke="#AE9368" stroke-width="0.2"/>
<path d="M17.6025 15.6921H14.7038C14.3814 15.6921 14.1207 15.9528 14.1207 16.2752V18.6908C14.1207 19.0133 14.3814 19.2739 14.7038 19.2739H17.6025C17.925 19.2739 18.1856 19.0133 18.1856 18.6908V16.2752C18.1856 15.9528 17.925 15.6921 17.6025 15.6921ZM17.0194 18.1077H15.2869V16.8583H17.0194V18.1077Z" fill="#AE9368" stroke="#AE9368" stroke-width="0.2"/>
<path d="M21.4675 19.2739H24.3662C24.6886 19.2739 24.9493 19.0133 24.9493 18.6908V16.2752C24.9493 15.9528 24.6886 15.6921 24.3662 15.6921H21.4675C21.145 15.6921 20.8844 15.9528 20.8844 16.2752V18.6908C20.8844 19.0133 21.145 19.2739 21.4675 19.2739ZM22.0506 16.8583H23.7831V18.1077H22.0506V16.8583Z" fill="#AE9368" stroke="#AE9368" stroke-width="0.2"/>
<path d="M30.6467 15.6921H27.748C27.4256 15.6921 27.1649 15.9528 27.1649 16.2752V18.6908C27.1649 19.0133 27.4256 19.2739 27.748 19.2739H30.6467C30.9692 19.2739 31.2298 19.0133 31.2298 18.6908V16.2752C31.2298 15.9528 30.9692 15.6921 30.6467 15.6921ZM30.0636 18.1077H28.3311V16.8583H30.0636V18.1077Z" fill="#AE9368" stroke="#AE9368" stroke-width="0.2"/>
<path d="M11.322 20.5233H8.4233C8.10085 20.5233 7.84019 20.784 7.84019 21.1064V23.522C7.84019 23.8444 8.10085 24.1051 8.4233 24.1051H11.322C11.6445 24.1051 11.9051 23.8444 11.9051 23.522V21.1064C11.9051 20.784 11.6445 20.5233 11.322 20.5233ZM10.7389 22.9389H9.00642V21.6895H10.7389V22.9389Z" fill="#AE9368" stroke="#AE9368" stroke-width="0.2"/>
<path d="M17.6025 20.5233H14.7038C14.3814 20.5233 14.1207 20.784 14.1207 21.1064V23.522C14.1207 23.8444 14.3814 24.1051 14.7038 24.1051H17.6025C17.925 24.1051 18.1856 23.8444 18.1856 23.522V21.1064C18.1856 20.784 17.925 20.5233 17.6025 20.5233ZM17.0194 22.9389H15.2869V21.6895H17.0194V22.9389Z" fill="#AE9368" stroke="#AE9368" stroke-width="0.2"/>
<path d="M21.4675 24.1051H24.3662C24.6886 24.1051 24.9493 23.8444 24.9493 23.522V21.1064C24.9493 20.784 24.6886 20.5233 24.3662 20.5233H21.4675C21.145 20.5233 20.8844 20.784 20.8844 21.1064V23.522C20.8844 23.8444 21.145 24.1051 21.4675 24.1051ZM22.0506 21.6895H23.7831V22.9389H22.0506V21.6895Z" fill="#AE9368" stroke="#AE9368" stroke-width="0.2"/>
<path d="M30.6467 20.5233H27.748C27.4256 20.5233 27.1649 20.784 27.1649 21.1064V23.522C27.1649 23.8444 27.4256 24.1051 27.748 24.1051H30.6467C30.9692 24.1051 31.2298 23.8444 31.2298 23.522V21.1064C31.2298 20.784 30.9692 20.5233 30.6467 20.5233ZM30.0636 22.9389H28.3311V21.6895H30.0636V22.9389Z" fill="#AE9368" stroke="#AE9368" stroke-width="0.2"/>
<path d="M11.322 25.3545H8.4233C8.10085 25.3545 7.84019 25.6151 7.84019 25.9376V28.3532C7.84019 28.6756 8.10085 28.9363 8.4233 28.9363H11.322C11.6445 28.9363 11.9051 28.6756 11.9051 28.3532V25.9376C11.9051 25.6151 11.6445 25.3545 11.322 25.3545ZM10.7389 27.77H9.00642V26.5207H10.7389V27.77Z" fill="#AE9368" stroke="#AE9368" stroke-width="0.2"/>
<path d="M17.6025 25.3545H14.7038C14.3814 25.3545 14.1207 25.6151 14.1207 25.9376V28.3532C14.1207 28.6756 14.3814 28.9363 14.7038 28.9363H17.6025C17.925 28.9363 18.1856 28.6756 18.1856 28.3532V25.9376C18.1856 25.6151 17.925 25.3545 17.6025 25.3545ZM17.0194 27.77H15.2869V26.5207H17.0194V27.77Z" fill="#AE9368" stroke="#AE9368" stroke-width="0.2"/>
<path d="M22.3945 27.4895L21.3966 26.4916L21.3259 26.4208L21.2552 26.4916L20.5721 27.1746L20.5014 27.2453L20.5721 27.316L22.021 28.7649C22.0211 28.765 22.0212 28.7651 22.0213 28.7652C22.1306 28.8757 22.2795 28.9361 22.4336 28.9361H22.4344C22.4413 28.9361 22.4509 28.9361 22.4612 28.9355L22.4554 28.8357M22.3945 27.4895L22.4655 27.5605L24.4142 25.2221L24.4782 25.1453L24.555 25.2093L25.144 25.7L25.2208 25.764L25.1568 25.8409L22.8052 28.6627C22.7176 28.7667 22.591 28.8295 22.4554 28.8357M22.3945 27.4895L24.4014 25.0812L24.4654 25.0044L24.5422 25.0684L25.2848 25.6872L25.3616 25.7512L25.2976 25.8281L22.882 28.7268L22.8817 28.7272C22.7763 28.8523 22.6236 28.9281 22.46 28.9356L22.4554 28.8357M22.3945 27.4895L22.0922 28.6947C22.1823 28.7859 22.3055 28.8361 22.4336 28.8361C22.4409 28.8361 22.448 28.8361 22.4554 28.8357" fill="#AE9368" stroke="#AE9368" stroke-width="0.2"/>
<path d="M28.1919 27.4895L27.1939 26.4916L27.1232 26.4208L27.0525 26.4916L26.3695 27.1746L26.2988 27.2453L26.3695 27.316L27.8184 28.7649C27.8185 28.765 27.8186 28.7651 27.8186 28.7652C27.928 28.8757 28.0768 28.9361 28.231 28.9361H28.2318C28.2386 28.9361 28.2483 28.9361 28.2586 28.9355L28.2527 28.8357M28.1919 27.4895L28.2629 27.5605L30.2116 25.2221L30.2756 25.1453L30.3524 25.2093L30.9413 25.7L31.0181 25.764L30.9541 25.8409L28.6026 28.6627C28.515 28.7667 28.3884 28.8295 28.2527 28.8357M28.1919 27.4895L30.1988 25.0812L30.2628 25.0044L30.3396 25.0684L31.0822 25.6872L31.159 25.7512L31.095 25.8281L28.6794 28.7268L28.679 28.7272C28.5736 28.8523 28.421 28.9281 28.2573 28.9356L28.2527 28.8357M28.1919 27.4895L27.8895 28.6947C27.9797 28.7859 28.1028 28.8361 28.231 28.8361C28.2383 28.8361 28.2454 28.8361 28.2527 28.8357" fill="#AE9368" stroke="#AE9368" stroke-width="0.2"/>
</svg>
