<svg width="27" height="26" viewBox="0 0 27 26" fill="none" xmlns="http://www.w3.org/2000/svg">
<path d="M23.8125 4.02495H23.5V2.06245C23.5 1.32492 22.9 0.724951 22.1625 0.724951H21.3375C20.6 0.724951 20 1.32492 20 2.06245V4.02495H7V2.06245C7 1.32492 6.40003 0.724951 5.6625 0.724951H4.8375C4.09997 0.724951 3.5 1.32492 3.5 2.06245V4.02495H3.1875C1.99495 4.02495 1.025 4.9949 1.025 6.18745V23.5125C1.025 24.705 1.99495 25.675 3.1875 25.675H23.8125C25.0051 25.675 25.975 24.705 25.975 23.5125V6.18745C25.975 4.9949 25.0051 4.02495 23.8125 4.02495ZM21.025 2.06245C21.025 1.89007 21.1651 1.74995 21.3375 1.74995H22.1625C22.3349 1.74995 22.475 1.89007 22.475 2.06245V6.18745C22.475 6.35983 22.3349 6.49995 22.1625 6.49995H21.3375C21.1651 6.49995 21.025 6.35983 21.025 6.18745V2.06245ZM4.525 2.06245C4.525 1.89007 4.66512 1.74995 4.8375 1.74995H5.6625C5.83488 1.74995 5.975 1.89007 5.975 2.06245V6.18745C5.975 6.35983 5.83488 6.49995 5.6625 6.49995H4.8375C4.66512 6.49995 4.525 6.35983 4.525 6.18745V2.06245ZM3.1875 5.04995H3.5V6.18745C3.5 6.92498 4.09997 7.52495 4.8375 7.52495H5.6625C6.40003 7.52495 7 6.92498 7 6.18745V5.04995H20V6.18745C20 6.92498 20.6 7.52495 21.3375 7.52495H22.1625C22.9 7.52495 23.5 6.92498 23.5 6.18745V5.04995H23.8125C24.4396 5.04995 24.95 5.56038 24.95 6.18745V10.625H2.05V6.18745C2.05 5.56038 2.56043 5.04995 3.1875 5.04995ZM23.8125 24.65H3.1875C2.56043 24.65 2.05 24.1395 2.05 23.5125V11.65H24.95V23.5125C24.95 24.1395 24.4396 24.65 23.8125 24.65Z" fill="#AE9368" stroke="#AE9368" stroke-width="0.2"/>
<path d="M8.96255 9.5875H18.0375C18.3209 9.5875 18.55 9.35839 18.55 9.075V6.6C18.55 6.31661 18.3209 6.0875 18.0375 6.0875H8.96255C8.67916 6.0875 8.45005 6.31661 8.45005 6.6V9.075C8.45005 9.35839 8.67916 9.5875 8.96255 9.5875ZM9.47505 7.1125H17.525V8.5625H9.47505V7.1125Z" fill="#AE9368" stroke="#AE9368" stroke-width="0.2"/>
<path d="M12.457 19.4023L10.3428 17.0714L9 18.5519L11.8493 21.6933C12.0266 21.8911 12.2687 22 12.5205 22C12.535 22 12.549 22 12.5634 21.9991C12.8301 21.9855 13.079 21.8495 13.2511 21.6241L18 15.3412L16.5402 14L12.457 19.4023Z" fill="#AE9368"/>
</svg>
