<svg width="31" height="31" viewBox="0 0 31 31" fill="none" xmlns="http://www.w3.org/2000/svg">
<path d="M29.1762 26.9167C30.4234 25.6875 30.4246 23.6728 29.1841 22.4242L29.1838 22.4238L29.1764 22.4164L26.2539 19.4939C25.6485 18.8885 24.8579 18.5575 23.9954 18.5575C23.1508 18.5575 22.3425 18.8882 21.7368 19.4939L20.7568 20.4739C20.5523 20.6784 20.2266 20.7673 19.775 20.718C19.3243 20.6687 18.7714 20.4832 18.1476 20.1703C16.9016 19.5451 15.405 18.4274 13.9339 16.9564C12.5065 15.5289 11.3283 13.9673 10.6902 12.6568L10.6902 12.6568L10.6895 12.6554C10.5086 12.2936 10.2967 11.7872 10.2063 11.3016C10.1142 10.8072 10.157 10.3858 10.4149 10.135L10.4164 10.1335L11.3964 9.15347C12.0019 8.54803 12.3329 7.75746 12.3329 6.89493C12.3329 6.0324 12.0019 5.24177 11.3964 4.63638L8.47396 1.7139C7.86851 1.10846 7.07794 0.77749 6.21541 0.77749C5.37087 0.77749 4.56257 1.10815 3.95686 1.71391L3.95639 1.71439L2.03208 3.65621C1.44669 4.23273 0.940164 5.11189 0.872548 6.41688C0.805123 7.7182 1.17445 9.43355 2.31923 11.6879L2.31929 11.688C3.8334 14.6635 6.41691 18.0536 9.6269 21.2636C12.0304 23.6671 14.6685 25.8536 17.2003 27.4404C19.7273 29.0242 22.1675 30.0228 24.1706 30.0228C25.3752 30.0228 26.4128 29.662 27.233 28.86L27.2342 28.8588L29.1758 26.9171C29.176 26.917 29.1761 26.9169 29.1762 26.9167ZM27.9838 23.5902C28.5723 24.1954 28.5714 25.1434 28.0118 25.7139L28.0018 25.7239L26.0593 27.6664C25.3614 28.3643 24.2856 28.445 23.1335 28.2223C21.9878 28.0009 20.8124 27.4876 19.9681 27.0611C17.1688 25.6352 13.9089 23.1438 10.819 20.0711C7.54549 16.7975 5.0983 13.5119 3.74927 10.7726C3.07442 9.4023 2.67841 8.17672 2.58637 7.16257C2.49433 6.14854 2.70705 5.36545 3.22423 4.8483L3.22424 4.84829L5.16672 2.90581C5.45403 2.6185 5.83606 2.45975 6.23313 2.45975C6.63021 2.45975 7.01228 2.6185 7.29954 2.90581L7.29955 2.90581L10.222 5.82829C10.5093 6.1156 10.6681 6.49763 10.6681 6.89471C10.6681 7.29179 10.5093 7.67385 10.222 7.96111L10.222 7.96112L9.24203 8.94112C8.15466 10.0285 8.34962 11.6418 9.12716 13.2872C9.90957 14.943 11.3094 16.6983 12.7595 18.1485C13.8505 19.2394 15.1193 20.3016 16.3869 21.0922C17.6504 21.8802 18.9309 22.4099 20.0407 22.4099C20.7731 22.4099 21.427 22.1888 21.9501 21.6475C21.9504 21.6472 21.9507 21.6469 21.951 21.6466L22.9292 20.6685C23.2165 20.3812 23.5985 20.2224 23.9956 20.2224C24.3927 20.2224 24.7748 20.3812 25.062 20.6685L25.1681 20.5624L25.062 20.6685L27.9831 23.5895C27.9833 23.5898 27.9836 23.59 27.9838 23.5902Z" fill="black" stroke="black" stroke-width="0.3"/>
</svg>
