<svg width="20" height="27" viewBox="0 0 20 27" fill="none" xmlns="http://www.w3.org/2000/svg">
<path d="M17.4928 10.1383H15.8456L15.8458 6.6095C15.8458 3.3958 13.2138 0.76377 10.0001 0.76377C6.78641 0.76377 4.15438 3.3958 4.15438 6.60949V10.1383H2.50712C1.24229 10.1383 0.223242 11.1573 0.223242 12.4222V23.9134C0.223242 25.1782 1.24229 26.1972 2.50712 26.1972H17.5263C18.7912 26.1972 19.8102 25.1782 19.8102 23.9134L19.8104 12.4222H19.8105L19.8104 12.4194C19.7754 11.1573 18.7582 10.1383 17.4928 10.1383ZM5.36245 6.60949C5.36245 4.04392 7.43454 1.97183 10.0001 1.97183C12.5657 1.97183 14.6378 4.04392 14.6378 6.60949V10.1383H5.36256L5.36245 6.60949Z" fill="#AE9368" stroke="#AE9368" stroke-width="0.2"/>
<path d="M11.7804 16.9246V16.9246C11.7801 15.9286 10.9961 15.1446 10.0001 15.1446C9.00275 15.1446 8.22007 15.9634 8.22007 16.9246C8.22007 17.7188 8.72221 18.3435 9.39619 18.607V20.9231V21.0231H9.49619H10.5042H10.6042V20.9231V18.61C11.2822 18.3734 11.7804 17.7144 11.7804 16.9246Z" fill="white" stroke="white" stroke-width="0.2"/>
</svg>
