<svg width="30" height="29" viewBox="0 0 30 29" fill="none" xmlns="http://www.w3.org/2000/svg">
<path d="M6.31519 10.7223H8.47799L7.39481 7.20605L6.31519 10.7223Z" fill="#AE9368"/>
<path d="M10.3526 0.000244141H2.95793C2.17337 0.000244141 1.42109 0.312055 0.866297 0.866806C0.311546 1.4213 0 2.17361 0 2.95817V28.1L8.87359 19.2264H15.5288L10.3526 0.000244141ZM8.93281 12.2014H5.8604L5.17619 14.42H3.69739L6.65532 4.8069H8.13412L11.0921 14.42H9.61325L8.93281 12.2014Z" fill="#AE9368"/>
<path d="M26.6206 0.000131975H11.8313L17.0077 19.2263H26.6208C27.4053 19.2263 28.1576 18.9144 28.7124 18.3597C29.2671 17.8052 29.5787 17.0529 29.5787 16.2683V2.95793C29.5787 2.17337 29.2671 1.4211 28.7124 0.866562C28.1576 0.31181 27.4053 0 26.6208 0L26.6206 0.000131975ZM21.4445 4.80673H22.9233V6.28553L21.4445 6.28579V4.80673ZM25.8812 14.4198C24.5306 14.4317 23.1921 14.1673 21.9471 13.6432C20.8657 14.1559 19.6835 14.4213 18.4866 14.4198V12.9407C19.112 12.9423 19.7343 12.8551 20.3352 12.682C19.1927 11.7724 18.4866 10.5783 18.4866 9.24366H19.9654C19.9654 10.3086 20.7344 11.2808 21.9324 11.9648C23.4275 11.0869 24.3619 9.49798 24.4024 7.76459H18.4865V6.28579H25.8812V7.76459C25.8582 9.65274 24.9947 11.4325 23.526 12.6191C24.2924 12.8345 25.085 12.9428 25.8812 12.9407L25.8812 14.4198Z" fill="#AE9368"/>
</svg>
