<svg width="25" height="28" viewBox="0 0 25 28" fill="none" xmlns="http://www.w3.org/2000/svg">
<path d="M2.403 12.8001H1.60279V12.0002C1.60279 10.9391 2.02438 9.92178 2.77436 9.17178C3.52464 8.42149 4.54193 8.00021 5.60279 8.00021H9.60279V2.40007C9.60279 1.54264 10.0604 0.750495 10.8029 0.321637C11.5456 -0.107212 12.4602 -0.107212 13.203 0.321637C13.9455 0.750487 14.4031 1.54264 14.4031 2.40007V8.00021H18.4031C19.4639 8.00021 20.4812 8.42152 21.2315 9.17178C21.9815 9.92178 22.4031 10.9391 22.4031 12.0002V12.8001H2.403ZM22.5151 14.4H1.49086L0.00285908 26.3043C-0.0152773 26.5292 0.0533612 26.7527 0.194823 26.9284C0.350516 27.1 0.570938 27.1988 0.802802 27.2002H4.2908L4.43477 25.6003L4.80279 21.5203C4.84716 21.0786 5.24113 20.7561 5.68279 20.8004C6.12476 20.8445 6.44701 21.2385 6.40294 21.6804L6.03492 25.6003L5.89095 27.2002H15.7152L15.4753 25.6003L14.4192 18.5125C14.3871 18.3035 14.4401 18.0903 14.566 17.9204C14.6921 17.7508 14.8807 17.6383 15.09 17.6085C15.2992 17.5786 15.5118 17.6336 15.6804 17.7614C15.8489 17.8889 15.9594 18.0789 15.9873 18.2884L17.0911 25.6006L17.331 27.2004H19.891L19.6031 25.6006L19.2192 23.3444C19.1767 23.1363 19.2211 22.9195 19.3419 22.7445C19.4625 22.5693 19.6494 22.451 19.8592 22.4167C20.0674 22.3765 20.2828 22.4217 20.4574 22.542C20.6318 22.6625 20.7507 22.8478 20.7872 23.0565L21.2351 25.6006L21.5071 27.2004H23.2032C23.4351 27.199 23.6555 27.1003 23.8112 26.9287C23.9527 26.7529 24.0213 26.5294 24.0032 26.3045L22.5151 14.4Z" fill="#AE9368"/>
</svg>
