<svg width="72" height="72" viewBox="0 0 72 72" fill="none" xmlns="http://www.w3.org/2000/svg">
<path fill-rule="evenodd" clip-rule="evenodd" d="M36.0043 0.800293C16.5857 0.800293 0.800003 16.5832 0.800003 36.0003C0.800003 55.4174 16.5857 71.2003 36.0043 71.2003C55.4228 71.2003 71.2 55.416 71.2 36.0003C71.2 16.5846 55.4228 0.800293 36.0043 0.800293ZM36.0043 4.73829C53.2943 4.73829 67.2614 18.7114 67.2614 35.9997C67.2614 53.288 53.2938 67.2612 36.0043 67.2612C18.7147 67.2612 4.73857 53.2874 4.73857 35.9997C4.73857 18.712 18.714 4.73829 36.0043 4.73829Z" fill="#363A44"/>
<path fill-rule="evenodd" clip-rule="evenodd" d="M55.6329 20.52C55.0531 20.4977 54.4933 20.7326 54.1021 21.1618L30.2521 46.606L17.8961 33.4325C17.5407 33.043 17.044 32.8119 16.5172 32.7913C15.9905 32.7706 15.4776 32.962 15.0931 33.3231C14.7086 33.6836 14.4843 34.183 14.4715 34.7104C14.4581 35.2372 14.6573 35.7478 15.0234 36.1267L28.8169 50.8324H28.8164C29.1892 51.2297 29.7092 51.4546 30.2534 51.4546C30.7975 51.4546 31.3176 51.2292 31.6898 50.8318L56.9755 23.8547V23.8552C57.5146 23.2961 57.6753 22.4724 57.3851 21.7525C57.095 21.0321 56.4086 20.5494 55.6323 20.5198L55.6329 20.52Z" fill="#363A44"/>
</svg>
