<svg width="32" height="23" viewBox="0 0 32 23" fill="none" xmlns="http://www.w3.org/2000/svg">
<path fill-rule="evenodd" clip-rule="evenodd" d="M2.63259 0H29.3662C29.861 0 30.3246 0.134702 30.7206 0.367956C26.1391 3.85931 21.5616 7.35472 16.9705 10.8342C16.6209 11.0989 16.2099 11.2316 15.7995 11.2316C15.3891 11.2316 14.9782 11.0991 14.6285 10.8342C10.101 7.40322 5.59411 3.94755 1.08014 0.497904C1.51589 0.185414 2.05323 0.000443965 2.63285 0.000443965L2.63259 0ZM31.7912 1.57015L21.5472 9.37718L32 19.6932V2.57424C32 2.21842 31.9255 1.87892 31.7912 1.57015H31.7912ZM20.252 10.3622L17.9661 12.0943C17.3203 12.5838 16.5598 12.8287 15.7995 12.8287C15.0389 12.8287 14.2787 12.5838 13.6329 12.0943L11.347 10.3622L0.391561 21.1746C0.856195 21.909 1.68764 22.4 2.63292 22.4H29.3665C30.2084 22.4 30.96 22.0103 31.4427 21.4063L20.252 10.3622ZM10.0534 9.37597L0.125911 1.78764C0.0440825 2.03575 0 2.29971 0 2.57379V19.2984L10.0534 9.37597Z" fill="#AE9368"/>
</svg>
