<svg width="29" height="28" viewBox="0 0 29 28" fill="none" xmlns="http://www.w3.org/2000/svg">
<path d="M5.09399 12.25H4.21899C3.97739 12.25 3.78149 12.4459 3.78149 12.6875C3.78149 12.9291 3.97739 13.125 4.21899 13.125H5.09399C5.33559 13.125 5.53149 12.9291 5.53149 12.6875C5.53149 12.4459 5.33559 12.25 5.09399 12.25Z" fill="#AE9368"/>
<path d="M5.09399 14H4.21899C3.97739 14 3.78149 14.1959 3.78149 14.4375C3.78149 14.6791 3.97739 14.875 4.21899 14.875H5.09399C5.33559 14.875 5.53149 14.6791 5.53149 14.4375C5.53149 14.1959 5.33559 14 5.09399 14Z" fill="#AE9368"/>
<path d="M5.09399 15.75H4.21899C3.97739 15.75 3.78149 15.9459 3.78149 16.1875C3.78149 16.4291 3.97739 16.625 4.21899 16.625H5.09399C5.33559 16.625 5.53149 16.4291 5.53149 16.1875C5.53149 15.9459 5.33559 15.75 5.09399 15.75Z" fill="#AE9368"/>
<path d="M5.09399 17.5H4.21899C3.97739 17.5 3.78149 17.6959 3.78149 17.9375C3.78149 18.1791 3.97739 18.375 4.21899 18.375H5.09399C5.33559 18.375 5.53149 18.1791 5.53149 17.9375C5.53149 17.6959 5.33559 17.5 5.09399 17.5Z" fill="#AE9368"/>
<path d="M5.09399 19.25H4.21899C3.97739 19.25 3.78149 19.4459 3.78149 19.6875C3.78149 19.9291 3.97739 20.125 4.21899 20.125H5.09399C5.33559 20.125 5.53149 19.9291 5.53149 19.6875C5.53149 19.4459 5.33559 19.25 5.09399 19.25Z" fill="#AE9368"/>
<path d="M5.53101 21.4375C5.53101 21.1959 5.33511 21 5.09351 21H4.21851C3.97691 21 3.78101 21.1959 3.78101 21.4375C3.78101 21.6791 3.97691 21.875 4.21851 21.875H5.09351C5.33511 21.875 5.53101 21.6791 5.53101 21.4375Z" fill="#AE9368"/>
<path d="M24.781 12.25H23.906C23.6644 12.25 23.4685 12.4459 23.4685 12.6875C23.4685 12.9291 23.6644 13.125 23.906 13.125H24.781C25.0226 13.125 25.2185 12.9291 25.2185 12.6875C25.2185 12.4459 25.0226 12.25 24.781 12.25Z" fill="#AE9368"/>
<path d="M24.781 14H23.906C23.6644 14 23.4685 14.1959 23.4685 14.4375C23.4685 14.6791 23.6644 14.875 23.906 14.875H24.781C25.0226 14.875 25.2185 14.6791 25.2185 14.4375C25.2185 14.1959 25.0226 14 24.781 14Z" fill="#AE9368"/>
<path d="M24.781 15.75H23.906C23.6644 15.75 23.4685 15.9459 23.4685 16.1875C23.4685 16.4291 23.6644 16.625 23.906 16.625H24.781C25.0226 16.625 25.2185 16.4291 25.2185 16.1875C25.2185 15.9459 25.0226 15.75 24.781 15.75Z" fill="#AE9368"/>
<path d="M24.781 17.5H23.906C23.6644 17.5 23.4685 17.6959 23.4685 17.9375C23.4685 18.1791 23.6644 18.375 23.906 18.375H24.781C25.0226 18.375 25.2185 18.1791 25.2185 17.9375C25.2185 17.6959 25.0226 17.5 24.781 17.5Z" fill="#AE9368"/>
<path d="M24.781 19.25H23.906C23.6644 19.25 23.4685 19.4459 23.4685 19.6875C23.4685 19.9291 23.6644 20.125 23.906 20.125H24.781C25.0226 20.125 25.2185 19.9291 25.2185 19.6875C25.2185 19.4459 25.0226 19.25 24.781 19.25Z" fill="#AE9368"/>
<path d="M24.781 21H23.906C23.6644 21 23.4685 21.1959 23.4685 21.4375C23.4685 21.6791 23.6644 21.875 23.906 21.875H24.781C25.0226 21.875 25.2185 21.6791 25.2185 21.4375C25.2185 21.1959 25.0226 21 24.781 21Z" fill="#AE9368"/>
<path d="M12.094 4.375C12.094 4.1334 11.8981 3.9375 11.6565 3.9375H9.46899C9.22739 3.9375 9.03149 4.1334 9.03149 4.375V7C9.03149 7.2416 9.22739 7.4375 9.46899 7.4375H11.6565C11.8981 7.4375 12.094 7.2416 12.094 7V4.375ZM11.219 6.5625H9.90649V4.8125H11.219V6.5625Z" fill="#AE9368"/>
<path d="M16.031 4.375C16.031 4.1334 15.8351 3.9375 15.5935 3.9375H13.406C13.1644 3.9375 12.9685 4.1334 12.9685 4.375V7C12.9685 7.2416 13.1644 7.4375 13.406 7.4375H15.5935C15.8351 7.4375 16.031 7.2416 16.031 7V4.375ZM15.156 6.5625H13.8435V4.8125H15.156V6.5625Z" fill="#AE9368"/>
<path d="M19.969 4.375C19.969 4.1334 19.7731 3.9375 19.5315 3.9375H17.344C17.1024 3.9375 16.9065 4.1334 16.9065 4.375V7C16.9065 7.2416 17.1024 7.4375 17.344 7.4375H19.5315C19.7731 7.4375 19.969 7.2416 19.969 7V4.375ZM19.094 6.5625H17.7815V4.8125H19.094V6.5625Z" fill="#AE9368"/>
<path d="M12.094 8.74997C12.094 8.50837 11.8981 8.31247 11.6565 8.31247H9.46899C9.22739 8.31247 9.03149 8.50837 9.03149 8.74997V11.375C9.03149 11.6166 9.22739 11.8125 9.46899 11.8125H11.6565C11.8981 11.8125 12.094 11.6166 12.094 11.375V8.74997ZM11.219 10.9375H9.90649V9.18747H11.219V10.9375Z" fill="#AE9368"/>
<path d="M16.031 8.74997C16.031 8.50837 15.8351 8.31247 15.5935 8.31247H13.406C13.1644 8.31247 12.9685 8.50837 12.9685 8.74997V11.375C12.9685 11.6166 13.1644 11.8125 13.406 11.8125H15.5935C15.8351 11.8125 16.031 11.6166 16.031 11.375V8.74997ZM15.156 10.9375H13.8435V9.18747H15.156V10.9375Z" fill="#AE9368"/>
<path d="M19.969 8.74997C19.969 8.50837 19.7731 8.31247 19.5315 8.31247H17.344C17.1024 8.31247 16.9065 8.50837 16.9065 8.74997V11.375C16.9065 11.6166 17.1024 11.8125 17.344 11.8125H19.5315C19.7731 11.8125 19.969 11.6166 19.969 11.375V8.74997ZM19.094 10.9375H17.7815V9.18747H19.094V10.9375Z" fill="#AE9368"/>
<path d="M12.094 13.125C12.094 12.8834 11.8981 12.6875 11.6565 12.6875H9.46899C9.22739 12.6875 9.03149 12.8834 9.03149 13.125V15.75C9.03149 15.9916 9.22739 16.1875 9.46899 16.1875H11.6565C11.8981 16.1875 12.094 15.9916 12.094 15.75V13.125ZM11.219 15.3125H9.90649V13.5625H11.219V15.3125Z" fill="#AE9368"/>
<path d="M16.031 13.125C16.031 12.8834 15.8351 12.6875 15.5935 12.6875H13.406C13.1644 12.6875 12.9685 12.8834 12.9685 13.125V15.75C12.9685 15.9916 13.1644 16.1875 13.406 16.1875H15.5935C15.8351 16.1875 16.031 15.9916 16.031 15.75V13.125ZM15.156 15.3125H13.8435V13.5625H15.156V15.3125Z" fill="#AE9368"/>
<path d="M19.969 13.125C19.969 12.8834 19.7731 12.6875 19.5315 12.6875H17.344C17.1024 12.6875 16.9065 12.8834 16.9065 13.125V15.75C16.9065 15.9916 17.1024 16.1875 17.344 16.1875H19.5315C19.7731 16.1875 19.969 15.9916 19.969 15.75V13.125ZM19.094 15.3125H17.7815V13.5625H19.094V15.3125Z" fill="#AE9368"/>
<path d="M11.656 17.0625H9.46851C9.22691 17.0625 9.03101 17.2584 9.03101 17.5V20.125C9.03101 20.3666 9.22691 20.5625 9.46851 20.5625H11.656C11.8976 20.5625 12.0935 20.3666 12.0935 20.125V17.5C12.0935 17.2584 11.8976 17.0625 11.656 17.0625ZM11.2185 19.6875H9.90601V17.9375H11.2185V19.6875Z" fill="#AE9368"/>
<path d="M15.594 17.0625H13.4065C13.1649 17.0625 12.969 17.2584 12.969 17.5V20.125C12.969 20.3666 13.1649 20.5625 13.4065 20.5625H15.594C15.8356 20.5625 16.0315 20.3666 16.0315 20.125V17.5C16.0315 17.2584 15.8356 17.0625 15.594 17.0625ZM15.1565 19.6875H13.844V17.9375H15.1565V19.6875Z" fill="#AE9368"/>
<path d="M19.531 17.0625H17.3435C17.1019 17.0625 16.906 17.2584 16.906 17.5V20.125C16.906 20.3666 17.1019 20.5625 17.3435 20.5625H19.531C19.7726 20.5625 19.9685 20.3666 19.9685 20.125V17.5C19.9685 17.2584 19.7726 17.0625 19.531 17.0625ZM19.0935 19.6875H17.781V17.9375H19.0935V19.6875Z" fill="#AE9368"/>
<path d="M26.75 10.9375C26.9916 10.9377 27.1873 11.1334 27.1875 11.375V23.4735C27.5025 23.5928 27.7975 23.7592 28.0625 23.9672V11.3747C28.0621 11.0267 27.9236 10.6931 27.6777 10.447C27.4316 10.2011 27.098 10.0626 26.75 10.0622H26.5312V9.18722C26.531 8.95519 26.4387 8.73273 26.2746 8.56887C26.1107 8.40481 25.8883 8.31242 25.6563 8.31223H22.5938V9.18723H25.6563V10.0622H22.5938V10.9372L26.75 10.9375Z" fill="#AE9368"/>
<path d="M28.4999 26.67C28.5073 26.0055 28.2511 25.3653 27.7872 24.8897C27.3232 24.4141 26.6896 24.1419 26.0253 24.1327C25.5486 24.1323 25.0824 24.2727 24.6851 24.5364C24.4185 23.9176 23.8866 23.4524 23.238 23.2706C22.5894 23.0885 21.8931 23.2092 21.3437 23.5991C20.7942 23.9889 20.4503 24.6061 20.4077 25.2786C19.9325 25.3436 19.49 25.5573 19.1435 25.8889C18.797 26.2206 18.5642 26.6532 18.4784 27.1251H17.5624V21.8751C17.5624 21.6335 17.3665 21.4376 17.1249 21.4376H11.8749C11.6333 21.4376 11.4374 21.6335 11.4374 21.8751V27.1251H10.5214C10.4357 26.6532 10.2029 26.2206 9.85636 25.8889C9.50988 25.5573 9.06731 25.3436 8.59211 25.2786C8.54953 24.6061 8.20559 23.9889 7.65616 23.5991C7.10674 23.2092 6.41046 23.0885 5.76181 23.2706C5.11316 23.4524 4.58136 23.9176 4.31476 24.5364C3.9175 24.2727 3.45126 24.1323 2.97451 24.1327C2.31026 24.1418 1.67666 24.4141 1.21261 24.8897C0.748747 25.3653 0.492512 26.0055 0.499912 26.67C0.499131 27.0075 0.564757 27.3419 0.693077 27.6542C0.766907 27.8499 0.947567 27.9848 1.15616 28.0001H27.8437C28.0515 27.9825 28.2312 27.8483 28.3067 27.6542C28.4351 27.3419 28.5007 27.0075 28.4999 26.67ZM20.6829 26.1364C20.8646 26.1364 21.0216 26.1567 21.1616 26.0139C21.3071 25.8659 21.2731 25.677 21.2731 25.4889L21.2733 25.4887C21.2536 25.0002 21.496 24.5383 21.9091 24.277C22.3224 24.0157 22.8436 23.9946 23.2767 24.2219C23.7095 24.4491 23.9884 24.8899 24.0081 25.3784C24.0212 25.5585 24.1437 25.712 24.3164 25.7647C24.4888 25.8176 24.6763 25.759 24.788 25.6174C25.0845 25.2344 25.541 25.0094 26.0253 25.0077C26.4577 25.0167 26.8689 25.1966 27.1687 25.5083C27.4685 25.8198 27.6325 26.2376 27.6249 26.67C27.6247 26.8237 27.6038 26.9768 27.563 27.1251H19.379C19.4624 26.8427 19.6339 26.5944 19.8687 26.4165C20.1032 26.2385 20.3886 26.1403 20.6829 26.1364V26.1364ZM12.3124 22.3125H16.6874V27.125H12.3124V22.3125ZM2.97441 25.0076C3.45879 25.0094 3.91521 25.2344 4.21171 25.6174C4.32343 25.759 4.51093 25.8176 4.68339 25.7646C4.85605 25.7119 4.97851 25.5584 4.9916 25.3783C5.0123 25.0277 5.16406 24.6977 5.41679 24.4539C5.66953 24.2102 6.00489 24.0703 6.35604 24.0625C6.72675 24.0705 7.07909 24.225 7.33594 24.4924C7.59297 24.7598 7.73321 25.118 7.72637 25.4887C7.72637 25.684 7.68555 25.8582 7.8379 26.0137C7.97755 26.1563 8.13575 26.1361 8.31661 26.1361L8.3168 26.1363C8.61114 26.1402 8.8965 26.2385 9.13105 26.4164C9.36582 26.5943 9.5373 26.8426 9.6207 27.125H1.4367C1.39588 26.9768 1.37498 26.8237 1.37479 26.6699C1.36717 26.2375 1.53123 25.8197 1.83104 25.5082C2.13084 25.1965 2.54199 25.0166 2.97439 25.0076L2.97441 25.0076Z" fill="#AE9368"/>
<path d="M25.0038 23.419C25.061 23.4004 25.1196 23.3854 25.1778 23.3698C25.2409 23.2346 25.2304 23.0764 25.1499 22.9508C25.0694 22.8252 24.9304 22.7494 24.7812 22.75H24.2124C24.511 22.9282 24.7784 23.1541 25.0038 23.419L25.0038 23.419Z" fill="#AE9368"/>
<path d="M1.8125 11.375C1.8127 11.1334 2.0084 10.9377 2.25 10.9375H6.40625V10.0625H3.34375V9.18747H6.40625V8.31247H3.34375C3.11172 8.31266 2.88927 8.40505 2.7254 8.56911C2.56134 8.73297 2.46896 8.95544 2.46876 9.18746V10.0625H2.25001C1.90197 10.0629 1.56836 10.2013 1.32226 10.4472C1.07636 10.6933 0.93789 11.0269 0.9375 11.375V23.9675C1.20254 23.7595 1.49745 23.5931 1.8125 23.4737L1.8125 11.375Z" fill="#AE9368"/>
<path d="M8.15582 3.49998C8.15602 3.25838 8.35172 3.06268 8.59332 3.06248H20.4058C20.6474 3.06268 20.8431 3.25838 20.8433 3.49998V22.8985C21.1097 22.7057 21.405 22.5569 21.7183 22.4575V3.49997C21.7179 3.15192 21.5795 2.81832 21.3336 2.57222C21.0875 2.32632 20.7539 2.18784 20.4058 2.18745H19.7496V1.31245C19.7492 0.964409 19.6107 0.630804 19.3648 0.384704C19.1187 0.138804 18.7851 0.000328965 18.437 -6.10352e-05H10.562C10.214 0.00032959 9.88039 0.138804 9.63429 0.384704C9.38839 0.630799 9.24992 0.964404 9.24953 1.31245V2.18745H8.59328C8.24523 2.18784 7.91163 2.32632 7.66553 2.57222C7.41963 2.81831 7.28115 3.15192 7.28076 3.49997V22.4575C7.59404 22.5569 7.88936 22.7057 8.15576 22.8985L8.15582 3.49998ZM10.1246 1.31248C10.1248 1.07088 10.3205 0.875179 10.5621 0.874984H18.4371C18.6787 0.875179 18.8744 1.07088 18.8746 1.31248V2.18748H10.1246V1.31248Z" fill="#AE9368"/>
<path d="M3.78101 23.1875C3.78121 23.2504 3.79507 23.3127 3.82183 23.3697C3.88023 23.3851 3.93863 23.4002 3.99586 23.4189C4.22125 23.1541 4.48863 22.9281 4.78726 22.75H4.21851C3.97691 22.75 3.78101 22.9459 3.78101 23.1875L3.78101 23.1875Z" fill="#AE9368"/>
</svg>
