<svg width="27" height="35" viewBox="0 0 27 35" fill="none" xmlns="http://www.w3.org/2000/svg">
<path d="M26.1784 13.9604C26.1784 7.14278 20.6519 1.61633 13.8343 1.61633C7.01668 1.61633 1.49023 7.14278 1.49023 13.9604C1.49023 20.778 13.8343 33.7109 13.8343 33.7109C13.8343 33.7109 26.1784 20.778 26.1784 13.9604Z" stroke="white" stroke-width="1.5" stroke-linejoin="round"/>
<path d="M12.5999 18.8981C12.5999 19.5798 12.0472 20.1325 11.3655 20.1325C10.6838 20.1325 10.1311 19.5798 10.1311 18.8981C10.1311 18.2164 10.6838 17.6637 11.3655 17.6637C12.0472 17.6637 12.5999 18.2164 12.5999 18.8981Z" stroke="white" stroke-width="1.5" stroke-linecap="round" stroke-linejoin="round"/>
<path d="M17.5374 18.8981C17.5374 19.5798 16.9847 20.1325 16.303 20.1325C15.6213 20.1325 15.0686 19.5798 15.0686 18.8981C15.0686 18.2164 15.6213 17.6637 16.303 17.6637C16.9847 17.6637 17.5374 18.2164 17.5374 18.8981Z" stroke="white" stroke-width="1.5" stroke-linecap="round" stroke-linejoin="round"/>
<path d="M12.5999 18.8981H15.0687" stroke="white" stroke-width="1.5" stroke-linecap="round" stroke-linejoin="round"/>
<path d="M10.1312 12.726H18.772L17.5376 16.4292H10.1312L8.89676 10.2572H7.66235" stroke="white" stroke-width="1.5" stroke-linecap="round" stroke-linejoin="round"/>
</svg>
