<svg width="26" height="32" viewBox="0 0 26 32" fill="none" xmlns="http://www.w3.org/2000/svg">
<path d="M12.9127 1.01165C10.1773 1.01188 7.52194 1.93588 5.37694 3.63396C3.23241 5.33205 1.72405 7.7044 1.09626 10.3668C0.468765 13.0293 0.75868 15.8257 1.91909 18.3031C3.07951 20.7803 5.04247 22.7929 7.4898 24.0148L11.1696 30.5846C11.3014 30.8198 11.4938 31.0156 11.7264 31.152C11.9592 31.2884 12.2239 31.3602 12.4937 31.3604H13.3312C13.601 31.3602 13.8655 31.2884 14.0983 31.152C14.3308 31.0156 14.523 30.8198 14.6549 30.5846L18.3346 24.0148C20.3532 23.007 22.051 21.4566 23.2374 19.5377C24.4238 17.6187 25.0522 15.4072 25.0518 13.1511C25.0518 6.45761 19.6064 1.01165 12.9127 1.01165ZM22.2919 19.1423C21.1803 20.8806 19.6082 22.2768 17.7506 23.1753C17.6571 23.2204 17.5799 23.2932 17.5293 23.3835L13.7726 30.0903C13.6831 30.2499 13.5142 30.3488 13.3313 30.3488H12.4941C12.3109 30.3488 12.1422 30.2499 12.0526 30.0903L8.29582 23.3835C8.24524 23.2932 8.16802 23.2205 8.07453 23.1753C5.80155 22.0822 3.9675 20.2488 2.87321 17.9764C1.77869 15.7039 1.48902 13.1272 2.05149 10.6685C2.61375 8.20987 3.99502 6.01498 5.96839 4.44436C7.94198 2.87362 10.3904 2.02004 12.9128 2.02369C19.0484 2.02369 24.0406 7.01563 24.0406 13.1516C24.0434 15.2748 23.4363 17.3537 22.2919 19.1423Z" fill="#AE9368" stroke="#AE9368" stroke-width="0.3"/>
<path d="M12.9127 3.89651C7.80969 3.89651 3.65811 8.04809 3.65811 13.1511C3.65811 18.2542 7.80969 22.4058 12.9127 22.4058C18.0158 22.4058 22.1674 18.2542 22.1674 13.1511C22.1674 8.04809 18.0158 3.89651 12.9127 3.89651ZM12.9126 21.0942C10.8061 21.0941 8.78585 20.2573 7.29611 18.7678C5.80658 17.278 4.96973 15.2577 4.96973 13.1511C4.96973 11.0446 5.80658 9.02431 7.29611 7.53454C8.78589 6.04499 10.8062 5.20813 12.9127 5.20813C15.0193 5.20813 17.0396 6.04499 18.5294 7.53454C20.0189 9.02427 20.8557 11.0445 20.8557 13.151C20.8533 15.2569 20.0157 17.2759 18.5266 18.765C17.0375 20.2542 15.0185 21.0917 12.9126 21.0942Z" fill="#AE9368" stroke="#AE9368" stroke-width="0.3"/>
<path d="M12.9125 10.2662H12.9127C13.3548 10.2662 13.7791 10.0906 14.0918 9.7779C14.4044 9.46525 14.5801 9.04094 14.5801 8.59883C14.5801 8.15674 14.4044 7.73236 14.0917 7.41974C13.7791 7.10714 13.3548 6.93142 12.9127 6.93142C12.4706 6.93142 12.0462 7.10708 11.7336 7.41976C11.421 7.73241 11.2453 8.15672 11.2453 8.59883L11.2453 8.599C11.2458 9.04113 11.4217 9.46488 11.734 9.77746L11.7341 9.77755C12.0467 10.0899 12.4704 10.2657 12.9125 10.2662Z" fill="#AE9368" stroke="#AE9368" stroke-width="0.3"/>
<path d="M14.9359 16.0361H14.5801V11.6337C14.5801 11.4598 14.511 11.293 14.388 11.17C14.265 11.047 14.0981 10.9779 13.9242 10.9779H10.8894C10.5272 10.9779 10.2335 11.2716 10.2335 11.6337V13.657C10.2335 13.8309 10.3026 13.9978 10.4256 14.1207C10.5486 14.2437 10.7155 14.3128 10.8894 14.3128H11.2452V16.0361H10.8894C10.5272 16.0361 10.2335 16.3297 10.2335 16.6919V18.7151C10.2335 18.889 10.3026 19.0559 10.4256 19.1789C10.5486 19.3019 10.7155 19.3709 10.8894 19.3709H14.9359C15.1098 19.3709 15.2766 19.3019 15.3996 19.1789C15.5226 19.0559 15.5917 18.889 15.5917 18.7151V16.6919C15.5917 16.518 15.5226 16.3511 15.3996 16.2281C15.2766 16.1051 15.1098 16.0361 14.9359 16.0361Z" fill="#AE9368" stroke="#AE9368" stroke-width="0.3"/>
</svg>
