<svg width="22" height="22" viewBox="0 0 22 22" fill="none" xmlns="http://www.w3.org/2000/svg">
<rect width="22" height="22" fill="#F2F2F2"/>
<g clip-path="url(#clip0_225_5975)" filter="url(#filter0_d_225_5975)">
<rect width="375" height="812" transform="translate(-23 -322)" fill="#F7F8FA"/>
<mask id="path-1-outside-1_225_5975" maskUnits="userSpaceOnUse" x="-0.412354" y="0" width="22" height="22" fill="black">
<rect fill="white" x="-0.412354" width="22" height="22"/>
<path d="M20.8806 21.0156C20.882 21.0012 20.882 20.9868 20.8806 20.9725V8.36778C20.8853 8.33725 20.8853 8.3062 20.8806 8.27548V8.25404C20.8674 8.22213 20.8497 8.19211 20.8283 8.16483C20.8154 8.15094 20.801 8.13858 20.7852 8.12795L10.9474 1.057C10.8407 0.981 10.6976 0.981 10.5909 1.057L0.753073 8.12795C0.737289 8.13858 0.722879 8.15094 0.710012 8.16483C0.688567 8.19211 0.670897 8.22213 0.657687 8.25404V8.27548C0.629551 8.30173 0.606732 8.33313 0.590091 8.36778V20.9725C0.588376 20.9857 0.588376 20.9993 0.590091 21.0125C0.586832 21.0339 0.586832 21.0557 0.590091 21.077C0.597297 21.0971 0.60759 21.1158 0.6208 21.1324C0.625604 21.1468 0.632809 21.1604 0.642416 21.1724C0.664719 21.1957 0.690626 21.2154 0.719275 21.2307H0.743807C0.789097 21.2621 0.842454 21.2793 0.897524 21.2799H20.5732C20.6157 21.2803 20.6578 21.2709 20.6962 21.2523H20.7207C20.7501 21.2381 20.7761 21.2184 20.7976 21.1938C20.807 21.182 20.8144 21.1684 20.8192 21.1539C20.8322 21.1372 20.8427 21.1185 20.8499 21.0986C20.8657 21.0732 20.8762 21.0451 20.8806 21.0156V21.0156ZM1.20496 9.0626L7.63337 14.9038L1.20496 20.3116V9.0626ZM8.09144 15.3035L10.5295 17.5109L10.5293 17.5108C10.6463 17.6164 10.8244 17.6164 10.9414 17.5108L13.3794 15.3033L19.731 20.6649H1.74002L8.09144 15.3035ZM13.8374 14.8885L20.2658 9.06264V20.3116L13.8374 14.8885ZM10.7354 1.67504L20.0844 8.39551L10.7354 16.8683L1.38639 8.39551L10.7354 1.67504Z"/>
</mask>
<path d="M20.8806 21.0156C20.882 21.0012 20.882 20.9868 20.8806 20.9725V8.36778C20.8853 8.33725 20.8853 8.3062 20.8806 8.27548V8.25404C20.8674 8.22213 20.8497 8.19211 20.8283 8.16483C20.8154 8.15094 20.801 8.13858 20.7852 8.12795L10.9474 1.057C10.8407 0.981 10.6976 0.981 10.5909 1.057L0.753073 8.12795C0.737289 8.13858 0.722879 8.15094 0.710012 8.16483C0.688567 8.19211 0.670897 8.22213 0.657687 8.25404V8.27548C0.629551 8.30173 0.606732 8.33313 0.590091 8.36778V20.9725C0.588376 20.9857 0.588376 20.9993 0.590091 21.0125C0.586832 21.0339 0.586832 21.0557 0.590091 21.077C0.597297 21.0971 0.60759 21.1158 0.6208 21.1324C0.625604 21.1468 0.632809 21.1604 0.642416 21.1724C0.664719 21.1957 0.690626 21.2154 0.719275 21.2307H0.743807C0.789097 21.2621 0.842454 21.2793 0.897524 21.2799H20.5732C20.6157 21.2803 20.6578 21.2709 20.6962 21.2523H20.7207C20.7501 21.2381 20.7761 21.2184 20.7976 21.1938C20.807 21.182 20.8144 21.1684 20.8192 21.1539C20.8322 21.1372 20.8427 21.1185 20.8499 21.0986C20.8657 21.0732 20.8762 21.0451 20.8806 21.0156V21.0156ZM1.20496 9.0626L7.63337 14.9038L1.20496 20.3116V9.0626ZM8.09144 15.3035L10.5295 17.5109L10.5293 17.5108C10.6463 17.6164 10.8244 17.6164 10.9414 17.5108L13.3794 15.3033L19.731 20.6649H1.74002L8.09144 15.3035ZM13.8374 14.8885L20.2658 9.06264V20.3116L13.8374 14.8885ZM10.7354 1.67504L20.0844 8.39551L10.7354 16.8683L1.38639 8.39551L10.7354 1.67504Z" fill="#ACB1C0"/>
<path d="M20.8806 21.0156C20.882 21.0012 20.882 20.9868 20.8806 20.9725V8.36778C20.8853 8.33725 20.8853 8.3062 20.8806 8.27548V8.25404C20.8674 8.22213 20.8497 8.19211 20.8283 8.16483C20.8154 8.15094 20.801 8.13858 20.7852 8.12795L10.9474 1.057C10.8407 0.981 10.6976 0.981 10.5909 1.057L0.753073 8.12795C0.737289 8.13858 0.722879 8.15094 0.710012 8.16483C0.688567 8.19211 0.670897 8.22213 0.657687 8.25404V8.27548C0.629551 8.30173 0.606732 8.33313 0.590091 8.36778V20.9725C0.588376 20.9857 0.588376 20.9993 0.590091 21.0125C0.586832 21.0339 0.586832 21.0557 0.590091 21.077C0.597297 21.0971 0.60759 21.1158 0.6208 21.1324C0.625604 21.1468 0.632809 21.1604 0.642416 21.1724C0.664719 21.1957 0.690626 21.2154 0.719275 21.2307H0.743807C0.789097 21.2621 0.842454 21.2793 0.897524 21.2799H20.5732C20.6157 21.2803 20.6578 21.2709 20.6962 21.2523H20.7207C20.7501 21.2381 20.7761 21.2184 20.7976 21.1938C20.807 21.182 20.8144 21.1684 20.8192 21.1539C20.8322 21.1372 20.8427 21.1185 20.8499 21.0986C20.8657 21.0732 20.8762 21.0451 20.8806 21.0156V21.0156ZM1.20496 9.0626L7.63337 14.9038L1.20496 20.3116V9.0626ZM8.09144 15.3035L10.5295 17.5109L10.5293 17.5108C10.6463 17.6164 10.8244 17.6164 10.9414 17.5108L13.3794 15.3033L19.731 20.6649H1.74002L8.09144 15.3035ZM13.8374 14.8885L20.2658 9.06264V20.3116L13.8374 14.8885ZM10.7354 1.67504L20.0844 8.39551L10.7354 16.8683L1.38639 8.39551L10.7354 1.67504Z" stroke="#ACB1C0" stroke-width="0.4" mask="url(#path-1-outside-1_225_5975)"/>
<mask id="path-2-outside-2_225_5975" maskUnits="userSpaceOnUse" x="6.30737" y="4.08398" width="9" height="9" fill="black">
<rect fill="white" x="6.30737" y="4.08398" width="9" height="9"/>
<path d="M10.474 12.3644C11.1139 12.3829 11.7482 12.2402 12.3186 11.9494L12.1525 11.5006V11.5004C11.6658 11.753 11.1235 11.8787 10.5754 11.8664C9.03825 11.8664 7.89772 10.7903 7.89772 9.05023C7.89772 6.93509 9.32732 5.58854 11.0243 5.58854C12.6414 5.58854 13.5483 6.67382 13.5483 8.18625C13.5483 9.39455 12.9549 10.1046 12.4231 10.0922C12.0788 10.0922 11.9527 9.71722 12.1156 8.92391L12.4692 7.03935V7.0397C12.1167 6.88478 11.7353 6.80621 11.3502 6.80912C10.6979 6.80912 10.0722 7.06817 9.61107 7.52931C9.14975 7.99063 8.89072 8.61612 8.89072 9.26858C8.89072 10.0926 9.41019 10.5814 10.016 10.5814V10.5812C10.3227 10.5808 10.6233 10.494 10.883 10.3311C11.1429 10.1679 11.3517 9.9351 11.4854 9.65888H11.5284C11.4977 10.2952 11.882 10.5812 12.3001 10.5812C13.2778 10.5812 14.1447 9.65888 14.1447 8.10029C14.1785 7.28761 13.869 6.49812 13.2917 5.92494C12.7144 5.35175 11.9228 5.04792 11.1103 5.0874C8.79837 5.0874 7.30737 6.932 7.30737 9.08403C7.31664 11.1039 8.7646 12.3644 10.474 12.3644L10.474 12.3644ZM11.5377 8.6229C11.4239 9.26846 10.8705 10.0402 10.2649 10.0402C9.80684 10.0402 9.57938 9.7082 9.57938 9.25015C9.57938 8.23865 10.3173 7.37174 11.2364 7.37174C11.4123 7.37088 11.5873 7.39576 11.7559 7.44551L11.5377 8.6229Z"/>
</mask>
<path d="M10.474 12.3644C11.1139 12.3829 11.7482 12.2402 12.3186 11.9494L12.1525 11.5006V11.5004C11.6658 11.753 11.1235 11.8787 10.5754 11.8664C9.03825 11.8664 7.89772 10.7903 7.89772 9.05023C7.89772 6.93509 9.32732 5.58854 11.0243 5.58854C12.6414 5.58854 13.5483 6.67382 13.5483 8.18625C13.5483 9.39455 12.9549 10.1046 12.4231 10.0922C12.0788 10.0922 11.9527 9.71722 12.1156 8.92391L12.4692 7.03935V7.0397C12.1167 6.88478 11.7353 6.80621 11.3502 6.80912C10.6979 6.80912 10.0722 7.06817 9.61107 7.52931C9.14975 7.99063 8.89072 8.61612 8.89072 9.26858C8.89072 10.0926 9.41019 10.5814 10.016 10.5814V10.5812C10.3227 10.5808 10.6233 10.494 10.883 10.3311C11.1429 10.1679 11.3517 9.9351 11.4854 9.65888H11.5284C11.4977 10.2952 11.882 10.5812 12.3001 10.5812C13.2778 10.5812 14.1447 9.65888 14.1447 8.10029C14.1785 7.28761 13.869 6.49812 13.2917 5.92494C12.7144 5.35175 11.9228 5.04792 11.1103 5.0874C8.79837 5.0874 7.30737 6.932 7.30737 9.08403C7.31664 11.1039 8.7646 12.3644 10.474 12.3644L10.474 12.3644ZM11.5377 8.6229C11.4239 9.26846 10.8705 10.0402 10.2649 10.0402C9.80684 10.0402 9.57938 9.7082 9.57938 9.25015C9.57938 8.23865 10.3173 7.37174 11.2364 7.37174C11.4123 7.37088 11.5873 7.39576 11.7559 7.44551L11.5377 8.6229Z" fill="#ACB1C0"/>
<path d="M10.474 12.3644C11.1139 12.3829 11.7482 12.2402 12.3186 11.9494L12.1525 11.5006V11.5004C11.6658 11.753 11.1235 11.8787 10.5754 11.8664C9.03825 11.8664 7.89772 10.7903 7.89772 9.05023C7.89772 6.93509 9.32732 5.58854 11.0243 5.58854C12.6414 5.58854 13.5483 6.67382 13.5483 8.18625C13.5483 9.39455 12.9549 10.1046 12.4231 10.0922C12.0788 10.0922 11.9527 9.71722 12.1156 8.92391L12.4692 7.03935V7.0397C12.1167 6.88478 11.7353 6.80621 11.3502 6.80912C10.6979 6.80912 10.0722 7.06817 9.61107 7.52931C9.14975 7.99063 8.89072 8.61612 8.89072 9.26858C8.89072 10.0926 9.41019 10.5814 10.016 10.5814V10.5812C10.3227 10.5808 10.6233 10.494 10.883 10.3311C11.1429 10.1679 11.3517 9.9351 11.4854 9.65888H11.5284C11.4977 10.2952 11.882 10.5812 12.3001 10.5812C13.2778 10.5812 14.1447 9.65888 14.1447 8.10029C14.1785 7.28761 13.869 6.49812 13.2917 5.92494C12.7144 5.35175 11.9228 5.04792 11.1103 5.0874C8.79837 5.0874 7.30737 6.932 7.30737 9.08403C7.31664 11.1039 8.7646 12.3644 10.474 12.3644L10.474 12.3644ZM11.5377 8.6229C11.4239 9.26846 10.8705 10.0402 10.2649 10.0402C9.80684 10.0402 9.57938 9.7082 9.57938 9.25015C9.57938 8.23865 10.3173 7.37174 11.2364 7.37174C11.4123 7.37088 11.5873 7.39576 11.7559 7.44551L11.5377 8.6229Z" stroke="#ACB1C0" stroke-width="0.4" mask="url(#path-2-outside-2_225_5975)"/>
</g>
<defs>
<filter id="filter0_d_225_5975" x="-27" y="-322" width="383" height="820" filterUnits="userSpaceOnUse" color-interpolation-filters="sRGB">
<feFlood flood-opacity="0" result="BackgroundImageFix"/>
<feColorMatrix in="SourceAlpha" type="matrix" values="0 0 0 0 0 0 0 0 0 0 0 0 0 0 0 0 0 0 127 0" result="hardAlpha"/>
<feOffset dy="4"/>
<feGaussianBlur stdDeviation="2"/>
<feComposite in2="hardAlpha" operator="out"/>
<feColorMatrix type="matrix" values="0 0 0 0 0 0 0 0 0 0 0 0 0 0 0 0 0 0 0.25 0"/>
<feBlend mode="normal" in2="BackgroundImageFix" result="effect1_dropShadow_225_5975"/>
<feBlend mode="normal" in="SourceGraphic" in2="effect1_dropShadow_225_5975" result="shape"/>
</filter>
<clipPath id="clip0_225_5975">
<rect width="375" height="812" fill="white" transform="translate(-23 -322)"/>
</clipPath>
</defs>
</svg>
