<svg width="24" height="24" viewBox="0 0 24 24" fill="none" xmlns="http://www.w3.org/2000/svg">
<path fill-rule="evenodd" clip-rule="evenodd" d="M1.89497 6.14867L10.9475 0.546174C11.5924 0.147043 12.4076 0.147043 13.0525 0.546174L22.105 6.14867C23.2831 6.87776 24 8.16454 24 9.54997V20C24 22.2091 22.2091 24 20 24H4C1.79086 24 0 22.2091 0 20V9.54997C0 8.16454 0.716906 6.87776 1.89497 6.14867ZM2.68436 7.42415C1.94807 7.87984 1.5 8.68407 1.5 9.54997V20C1.5 21.3807 2.61929 22.5 4 22.5H20C21.3807 22.5 22.5 21.3807 22.5 20V9.54997C22.5 8.68407 22.0519 7.87984 21.3156 7.42415L12.2631 1.82166C12.1019 1.72188 11.8981 1.72188 11.7369 1.82166L2.68436 7.42415Z" fill="#AE9368"/>
</svg>
