<svg width="29" height="29" viewBox="0 0 29 29" fill="none" xmlns="http://www.w3.org/2000/svg">
<path d="M19.8312 1.74248C16.3815 0.331282 12.6184 0.331282 9.16879 1.74248C5.71912 3.15368 3.05366 5.81914 1.64238 9.26888C0.231184 12.7186 0.231184 16.4817 1.64238 19.9313C3.05359 23.381 5.71905 26.0464 9.16879 27.4577C10.8937 28.1631 12.6966 28.5162 14.5 28.5162H14.7745H14.853H15.1275C16.6954 28.4377 18.3027 28.0849 19.7924 27.4577C26.8876 24.5177 30.2588 16.3641 27.3188 9.30808C25.9465 5.85869 23.2416 3.19295 19.8316 1.74248H19.8312ZM25.7503 8.87688H22.3007C21.9085 7.54415 21.3991 6.25048 20.811 5.15295C20.3407 4.29055 19.7919 3.54568 19.2431 2.91841C19.2822 2.91841 19.3216 2.95751 19.3607 2.95751C22.144 4.13386 24.3786 6.21139 25.7504 8.87685L25.7503 8.87688ZM21.7521 14.6002C21.7521 16.0114 21.5561 17.5402 21.1642 19.0299H15.5194V10.2099H21.2818C21.556 11.5818 21.7521 13.0714 21.7521 14.6002H21.7521ZM7.95373 14.6002C7.95373 13.0714 8.14978 11.5818 8.46341 10.1706H14.2258V18.9906H8.58094C8.14973 17.5402 7.95368 16.0114 7.95368 14.6002H7.95373ZM14.1865 2.05622V8.87709H8.77679C9.87467 5.23135 11.9522 2.52648 14.1865 2.05622ZM14.1865 20.3234V27.1441C11.9913 26.6344 10.0313 23.7338 8.89432 20.3232L14.1865 20.3234ZM15.5192 27.1441V20.3232H20.8113C19.6747 23.7338 17.6753 26.6347 15.5192 27.1441ZM15.5192 8.87688V2.05622C17.7928 2.48744 19.8313 5.23135 20.9289 8.87709L15.5192 8.87688ZM9.67853 2.95775C10.0706 2.80107 10.4625 2.64412 10.8546 2.52654C10.1491 3.232 9.52187 4.0944 8.93373 5.15294C8.30646 6.2896 7.79707 7.54414 7.44406 8.87687H3.28892C4.62165 6.21141 6.89533 4.13381 9.6786 2.95774L9.67853 2.95775ZM2.74006 10.1314V10.2098H7.13039C6.81675 11.6602 6.66007 13.1498 6.66007 14.6395C6.66007 16.0507 6.85613 17.5795 7.20886 19.0692L2.74006 19.0689V19.1474C1.60339 16.168 1.60339 13.0322 2.74006 10.1314V10.1314ZM3.28884 20.3234H7.56157C7.91431 21.4994 8.38491 22.6361 8.93371 23.6946C9.60008 24.9491 10.3059 25.9682 11.0898 26.7522C10.6195 26.6346 10.1489 26.4385 9.67858 26.2818C6.85618 25.0664 4.62164 22.9888 3.28891 20.3234L3.28884 20.3234ZM19.3216 26.2425C19.2041 26.2816 19.0471 26.3601 18.9295 26.3992C19.5959 25.6543 20.2231 24.7528 20.7719 23.6943C21.3207 22.6358 21.7911 21.4992 22.1441 20.3231H25.7113C24.3786 22.9888 22.1441 25.0664 19.3217 26.2424L19.3216 26.2425ZM26.2992 19.0297H22.4968C22.8496 17.54 23.0456 16.0506 23.0456 14.6C23.0456 13.1103 22.889 11.6209 22.5753 10.1703H26.2992C27.3969 13.0322 27.3969 16.1679 26.2992 19.0295V19.0297Z" fill="black"/>
</svg>
