<svg width="32" height="31" viewBox="0 0 32 31" fill="none" xmlns="http://www.w3.org/2000/svg">
<path d="M12.4971 0.826904C8.4072 1.78011 4.95256 4.37047 2.84102 7.86381H8.6072C8.94903 6.64011 9.35798 5.49559 9.8472 4.48499C10.5672 2.99655 11.4571 1.72094 12.4978 0.826904H12.4971ZM19.5033 0.826904C20.544 1.72094 21.4335 2.99655 22.1538 4.48499C22.6431 5.49595 23.052 6.64047 23.3938 7.86381H29.16C27.0481 4.37047 23.5931 1.78002 19.504 0.826904H19.5033ZM15.0083 1.6019C13.8146 2.05411 12.6144 3.31656 11.6294 5.35308C11.2679 6.1004 10.9482 6.94914 10.6683 7.86426H15.0083V1.6019ZM16.9921 1.6019V7.86381H21.3321C21.0522 6.94905 20.7328 6.10036 20.3709 5.35264C19.3855 3.31656 18.1853 2.05406 16.9921 1.60146V1.6019ZM1.81802 9.84808C1.17034 11.389 0.767295 13.0599 0.655518 14.8081H7.59934C7.65124 13.0695 7.82284 11.4012 8.12627 9.84808H1.81759H1.81802ZM10.1572 9.84808C9.83405 11.3774 9.62508 13.0491 9.56799 14.8081H15.0086V9.84808H10.1572ZM16.9928 9.84808V14.8081H22.4334C22.3763 13.0491 22.1677 11.3774 21.8442 9.84808H16.9928ZM23.8747 9.84808C24.1781 11.4012 24.3497 13.0695 24.4016 14.8081H31.3454C31.2337 13.0599 30.8306 11.389 30.1829 9.84808H23.8743H23.8747ZM0.655695 16.7919C0.767445 18.5401 1.17052 20.2109 1.81819 21.7519H8.12687C7.8231 20.1999 7.65115 18.5319 7.59994 16.7919H0.655695ZM9.56775 16.7919C9.62415 18.5537 9.83278 20.2233 10.157 21.7519H15.0083V16.7919H9.56775ZM16.9922 16.7919V21.7519H21.8435C22.1673 20.2233 22.376 18.5537 22.4327 16.7919H16.9922ZM24.401 16.7919C24.3494 18.5319 24.1778 20.1999 23.8741 21.7519H30.1827C30.8304 20.2109 31.2335 18.5401 31.3452 16.7919H24.401ZM2.84004 23.7357C4.95672 27.2377 8.42492 29.8254 12.528 30.7726C11.4766 29.8735 10.5725 28.5999 9.84666 27.099C9.35745 26.088 8.94846 24.9566 8.60666 23.7353H2.84049L2.84004 23.7357ZM10.6675 23.7357C10.9474 24.6488 11.2668 25.4839 11.6287 26.2313C12.6141 28.2677 13.8143 29.5413 15.0075 29.9976V23.7357H10.6675ZM16.9914 23.7357V29.9976C18.185 29.5413 19.3852 28.2674 20.3702 26.2313C20.7317 25.484 21.0514 24.6488 21.3314 23.7357H16.9914ZM23.3927 23.7357C23.0509 24.957 22.6419 26.0884 22.1527 27.0994C21.4265 28.5999 20.5228 29.8738 19.4714 30.7731C23.574 29.8255 27.0418 27.2378 29.1593 23.7362H23.3931L23.3927 23.7357Z" fill="#AE9368"/>
</svg>
