<svg width="21" height="32" viewBox="0 0 21 32" fill="none" xmlns="http://www.w3.org/2000/svg">
<path d="M10.4998 0.500488C4.73717 0.500488 0 4.92281 0 11.2312C0 13.4824 0.538887 15.0484 1.53978 16.7831L9.79323 31.0907V31.0905C9.93548 31.3436 10.2062 31.5005 10.5 31.5005C10.7938 31.5005 11.0645 31.3436 11.2068 31.0905L19.4602 16.7828C20.4611 15.0484 21 13.4824 21 11.2313C21 4.92289 16.2628 0.500495 10.5002 0.500495L10.4998 0.500488ZM10.4998 6.06444C13.1762 6.06444 15.3458 8.19967 15.3458 10.8336C15.3458 13.4675 13.1762 15.6028 10.4998 15.6028C7.82343 15.6028 5.65381 13.4675 5.65381 10.8336C5.65381 8.19967 7.82343 6.06444 10.4998 6.06444Z" fill="#AE9368"/>
</svg>
