<svg width="27" height="34" viewBox="0 0 27 34" fill="none" xmlns="http://www.w3.org/2000/svg">
<path d="M24.8521 7.87753C21.6873 1.58233 14.0161 -0.96327 7.72091 2.20165C1.42571 5.36645 -1.01669 13.3129 2.04503 19.3329C3.48983 22.1881 9.50983 29.6185 12.1586 32.8865C12.8123 33.7121 14.0507 33.7121 14.7386 32.8865C17.3875 29.6185 23.3386 22.1881 24.8866 19.3329C26.8127 15.8242 26.7441 11.6273 24.8521 7.87766L24.8521 7.87753ZM13.4657 20.2959C9.78478 20.2959 6.82651 17.3032 6.82651 13.6567C6.82651 9.97581 9.78491 7.01753 13.4657 7.01753C17.1466 7.01753 20.1049 10.0103 20.1049 13.6567C20.1392 17.3031 17.1465 20.2959 13.4657 20.2959Z" fill="black"/>
</svg>
