<svg width="33" height="33" viewBox="0 0 33 33" fill="none" xmlns="http://www.w3.org/2000/svg">
<path d="M22.3873 10.3016C22.3872 10.3016 22.3872 10.3016 22.3872 10.3016H21.1144L21.1146 7.55039C21.1146 5.01351 19.037 2.93589 16.5001 2.93589C13.9632 2.93589 11.8856 5.01351 11.8856 7.55038V10.3016H10.6128C9.60713 10.3016 8.79685 11.1119 8.79685 12.1175V21.1463C8.79685 22.1519 9.60713 22.9622 10.6128 22.9622H22.4136C23.4192 22.9622 24.2295 22.1519 24.2295 21.1463L24.2296 12.1175H24.2297L24.2296 12.1147C24.2018 11.1118 23.3934 10.3016 22.3873 10.3016ZM23.2375 21.0464H23.2113V21.1464C23.2113 21.5928 22.8336 21.9705 22.3872 21.9705H10.6128C10.1663 21.9705 9.78867 21.5928 9.78867 21.1464V12.1176C9.78867 11.6712 10.1663 11.2935 10.6128 11.2935H22.4136C22.86 11.2935 23.2377 11.6712 23.2377 12.1176L23.2375 21.0464ZM16.0041 18.7968V18.8968H16.1041H16.8962H16.9962V18.7968V16.9946C17.53 16.8014 17.9203 16.2793 17.9203 15.6552V15.6552C17.9201 14.8608 17.2945 14.2352 16.5001 14.2352H16.5001C15.7043 14.2352 15.0801 14.8884 15.0801 15.6552C15.0801 16.2836 15.4742 16.7787 16.0041 16.9916V18.7968ZM12.8777 7.55038C12.8777 5.54641 14.4961 3.92794 16.5001 3.92794C18.5041 3.92794 20.1226 5.54641 20.1226 7.55038V10.3016H12.8777L12.8777 7.55038ZM16.5001 16.1097C16.2649 16.1097 16.0721 15.9169 16.0721 15.6817C16.0721 15.4466 16.2649 15.2538 16.5001 15.2538C16.7352 15.2538 16.928 15.4466 16.928 15.6817C16.928 15.9169 16.7352 16.1097 16.5001 16.1097Z" fill="#ACB1C0" stroke="#ACB1C0" stroke-width="0.2"/>
</svg>
