<svg width="28" height="19" viewBox="0 0 28 19" fill="none" xmlns="http://www.w3.org/2000/svg">
<path d="M2.11111 0C1.55129 0 1.0143 0.222421 0.618254 0.618254C0.222421 1.01432 0 1.5513 0 2.11111C0 2.67092 0.222421 3.20792 0.618254 3.60397C1.01432 3.9998 1.5513 4.22222 2.11111 4.22222C2.67092 4.22222 3.20792 3.9998 3.60397 3.60397C3.9998 3.2079 4.22222 2.67092 4.22222 2.11111C4.22222 1.5513 3.9998 1.0143 3.60397 0.618254C3.2079 0.222421 2.67092 0 2.11111 0Z" fill="white"/>
<path d="M7.38876 3.21977H22.1665C22.5532 3.21977 22.9104 3.01361 23.1036 2.6788C23.2968 2.34399 23.2968 1.93165 23.1036 1.59682C22.9104 1.262 22.5532 1.05585 22.1665 1.05585H7.38876C6.99646 1.05585 6.63407 1.26508 6.43804 1.60483C6.24201 1.94435 6.24201 2.36278 6.43804 2.70255C6.63407 3.04207 6.99645 3.2513 7.38876 3.2513V3.21977Z" fill="white"/>
<path d="M2.11111 7.38892C1.55129 7.38892 1.0143 7.61134 0.618254 8.00717C0.222421 8.40324 0 8.94022 0 9.50003C0 10.0598 0.222421 10.5968 0.618254 10.9929C1.01432 11.3887 1.5513 11.6111 2.11111 11.6111C2.67092 11.6111 3.20792 11.3887 3.60397 10.9929C3.9998 10.5968 4.22222 10.0598 4.22222 9.50003C4.22222 8.94022 3.9998 8.40321 3.60397 8.00717C3.2079 7.61134 2.67092 7.38892 2.11111 7.38892Z" fill="white"/>
<path d="M7.38879 10.5555H17.9443C18.3216 10.5555 18.67 10.3543 18.8585 10.0277C19.047 9.70117 19.047 9.29873 18.8585 8.97218C18.67 8.64562 18.3216 8.4444 17.9443 8.4444H7.38879C7.01157 8.4444 6.66311 8.64561 6.47462 8.97218C6.28613 9.29874 6.28613 9.70117 6.47462 10.0277C6.66311 10.3543 7.01159 10.5555 7.38879 10.5555Z" fill="white"/>
<path d="M2.11111 14.7778C1.55129 14.7778 1.0143 15.0002 0.618254 15.396C0.222421 15.7921 0 16.3291 0 16.8889C0 17.4487 0.222421 17.9857 0.618254 18.3817C1.01432 18.7776 1.5513 19 2.11111 19C2.67092 19 3.20792 18.7776 3.60397 18.3817C3.9998 17.9857 4.22222 17.4487 4.22222 16.8889C4.22222 16.3291 3.9998 15.7921 3.60397 15.396C3.2079 15.0002 2.67092 14.7778 2.11111 14.7778Z" fill="white"/>
<path d="M26.3888 15.8333H7.38879C7.01157 15.8333 6.66311 16.0346 6.47462 16.3611C6.28613 16.6877 6.28613 17.0901 6.47462 17.4167C6.66311 17.7432 7.01159 17.9445 7.38879 17.9445H26.3888C26.766 17.9445 27.1145 17.7432 27.303 17.4167C27.4915 17.0901 27.4915 16.6877 27.303 16.3611C27.1145 16.0346 26.766 15.8333 26.3888 15.8333Z" fill="white"/>
</svg>
