<svg width="26" height="29" viewBox="0 0 26 29" fill="none" xmlns="http://www.w3.org/2000/svg">
<mask id="path-1-outside-1_86_3036" maskUnits="userSpaceOnUse" x="-0.205078" y="-0.0402832" width="26" height="24" fill="black">
<rect fill="white" x="-0.205078" y="-0.0402832" width="26" height="24"/>
<path d="M24.2002 23.0999H1.40027C1.16035 23.0999 0.980206 22.9798 0.860386 22.7999C0.740288 22.62 0.800335 22.3798 0.920436 22.2C0.920436 22.1399 3.80055 18.12 3.80055 14.7598V9.95976C3.80055 4.97983 7.82052 0.959717 12.8006 0.959717C17.7805 0.959717 21.8006 4.97968 21.8006 9.95976V14.7598C21.8006 18.1198 24.6807 22.2 24.6807 22.2C24.8008 22.3798 24.8008 22.62 24.7408 22.7999C24.6198 22.9801 24.44 23.0999 24.2001 23.0999H24.2002ZM2.53976 21.9H23.1197C22.2198 20.3999 20.5996 17.46 20.5996 14.7V9.89991C20.5996 5.58 17.1195 2.09983 12.7995 2.09983C8.47951 2.09983 4.99941 5.57992 4.99941 9.89991V14.7C4.9997 17.46 3.43983 20.3999 2.53961 21.9H2.53976Z"/>
</mask>
<path d="M24.2002 23.0999H1.40027C1.16035 23.0999 0.980206 22.9798 0.860386 22.7999C0.740288 22.62 0.800335 22.3798 0.920436 22.2C0.920436 22.1399 3.80055 18.12 3.80055 14.7598V9.95976C3.80055 4.97983 7.82052 0.959717 12.8006 0.959717C17.7805 0.959717 21.8006 4.97968 21.8006 9.95976V14.7598C21.8006 18.1198 24.6807 22.2 24.6807 22.2C24.8008 22.3798 24.8008 22.62 24.7408 22.7999C24.6198 22.9801 24.44 23.0999 24.2001 23.0999H24.2002ZM2.53976 21.9H23.1197C22.2198 20.3999 20.5996 17.46 20.5996 14.7V9.89991C20.5996 5.58 17.1195 2.09983 12.7995 2.09983C8.47951 2.09983 4.99941 5.57992 4.99941 9.89991V14.7C4.9997 17.46 3.43983 20.3999 2.53961 21.9H2.53976Z" fill="#AE9368"/>
<path d="M0.860386 22.7999L1.06845 22.6613L1.0683 22.6611L0.860386 22.7999ZM0.920436 22.2L1.12835 22.3388L1.17044 22.2758V22.2H0.920436ZM24.6807 22.2L24.8887 22.0611L24.885 22.0558L24.6807 22.2ZM24.7408 22.7999L24.9484 22.9393L24.9672 22.9112L24.9779 22.8791L24.7408 22.7999ZM23.1197 21.9V22.15H23.5612L23.3341 21.7714L23.1197 21.9ZM4.99941 14.7H4.74941V14.7L4.99941 14.7ZM2.53961 21.9L2.32525 21.7714L2.09803 22.15H2.53961V21.9ZM24.2002 22.8499H1.40027V23.3499H24.2002V22.8499ZM1.40027 22.8499C1.25732 22.8499 1.14983 22.7835 1.06845 22.6613L0.652324 22.9385C0.810582 23.1761 1.06339 23.3499 1.40027 23.3499V22.8499ZM1.0683 22.6611C1.03246 22.6074 1.02951 22.4868 1.12835 22.3388L0.712523 22.0612C0.571156 22.2729 0.448118 22.6327 0.652472 22.9387L1.0683 22.6611ZM1.17044 22.2C1.17044 22.247 1.15634 22.2821 1.15565 22.284C1.15198 22.294 1.14856 22.3011 1.14746 22.3034C1.14503 22.3084 1.14369 22.3105 1.14538 22.3076C1.14827 22.3026 1.15419 22.2928 1.16444 22.2765C1.18457 22.2445 1.21443 22.1982 1.25435 22.1363C1.33335 22.0136 1.44692 21.8369 1.58324 21.6159C1.85578 21.174 2.21967 20.5543 2.58386 19.8297C3.30813 18.3888 4.05055 16.5004 4.05055 14.7598H3.55055C3.55055 16.3794 2.85291 18.1811 2.13712 19.6052C1.78129 20.3131 1.42515 20.9197 1.15767 21.3534C1.02398 21.5702 0.912533 21.7436 0.834034 21.8655C0.795195 21.9257 0.763176 21.9753 0.741117 22.0104C0.730279 22.0277 0.720024 22.0443 0.712014 22.0582C0.708254 22.0647 0.702785 22.0745 0.697584 22.0852C0.695102 22.0903 0.690643 22.0998 0.686271 22.1117C0.684887 22.1155 0.670436 22.152 0.670436 22.2H1.17044ZM4.05055 14.7598V9.95976H3.55055V14.7598H4.05055ZM4.05055 9.95976C4.05055 5.1179 7.95859 1.20972 12.8006 1.20972V0.709717C7.68244 0.709717 3.55055 4.84176 3.55055 9.95976H4.05055ZM12.8006 1.20972C17.6425 1.20972 21.5506 5.11776 21.5506 9.95976H22.0506C22.0506 4.84161 17.9186 0.709717 12.8006 0.709717V1.20972ZM21.5506 9.95976V14.7598H22.0506V9.95976H21.5506ZM21.5506 14.7598C21.5506 16.5 22.2928 18.4031 23.0171 19.8517C23.3813 20.5801 23.7453 21.2019 24.0183 21.6418C24.1549 21.8618 24.2689 22.0366 24.349 22.1568C24.389 22.2168 24.4206 22.2633 24.4423 22.2949C24.4532 22.3107 24.4616 22.3228 24.4674 22.3311C24.4702 22.3352 24.4724 22.3384 24.474 22.3406C24.4747 22.3416 24.4753 22.3425 24.4758 22.3431C24.476 22.3434 24.4761 22.3436 24.4763 22.3438C24.4763 22.3439 24.4764 22.344 24.4764 22.344C24.4765 22.3441 24.4765 22.3441 24.6807 22.2C24.885 22.0558 24.885 22.0558 24.885 22.0558C24.885 22.0558 24.885 22.0558 24.885 22.0558C24.8849 22.0557 24.8848 22.0556 24.8847 22.0554C24.8844 22.055 24.884 22.0543 24.8833 22.0535C24.8821 22.0517 24.8802 22.049 24.8776 22.0453C24.8725 22.0379 24.8647 22.0267 24.8545 22.0118C24.834 21.982 24.8037 21.9375 24.765 21.8794C24.6876 21.7633 24.5766 21.5931 24.4431 21.3781C24.1761 20.9479 23.8201 20.3397 23.4643 19.6281C22.7485 18.1965 22.0506 16.3796 22.0506 14.7598H21.5506ZM24.4728 22.3388C24.5381 22.4365 24.547 22.591 24.5037 22.7207L24.9779 22.8791C25.0547 22.6491 25.0636 22.3232 24.8887 22.0612L24.4728 22.3388ZM24.5332 22.6606C24.4505 22.7838 24.3429 22.8499 24.2001 22.8499V23.3499C24.537 23.3499 24.7892 23.1763 24.9484 22.9393L24.5332 22.6606ZM24.2001 23.3499H24.2002V22.8499H24.2001V23.3499ZM2.53976 22.15H23.1197V21.65H2.53976V22.15ZM23.3341 21.7714C22.4322 20.268 20.8496 17.3828 20.8496 14.7H20.3496C20.3496 17.5372 22.0074 20.5318 22.9053 22.0286L23.3341 21.7714ZM20.8496 14.7V9.89991H20.3496V14.7H20.8496ZM20.8496 9.89991C20.8496 5.44193 17.2576 1.84983 12.7995 1.84983V2.34983C16.9814 2.34983 20.3496 5.71807 20.3496 9.89991H20.8496ZM12.7995 1.84983C8.34143 1.84983 4.74941 5.44185 4.74941 9.89991H5.24941C5.24941 5.71799 8.61758 2.34983 12.7995 2.34983V1.84983ZM4.74941 9.89991V14.7H5.24941V9.89991H4.74941ZM4.74941 14.7C4.74969 17.3849 3.22488 20.2722 2.32525 21.7714L2.75397 22.0286C3.65478 20.5275 5.24971 17.5352 5.24941 14.6999L4.74941 14.7ZM2.53961 22.15H2.53976V21.65H2.53961V22.15Z" fill="#AE9368" mask="url(#path-1-outside-1_86_3036)"/>
<mask id="path-3-outside-2_86_3036" maskUnits="userSpaceOnUse" x="8.20044" y="23.3003" width="9" height="6" fill="black">
<rect fill="white" x="8.20044" y="23.3003" width="9" height="6"/>
<path d="M12.8003 28.5001C10.8203 28.5001 9.20044 26.8802 9.20044 24.9002C9.20044 24.5402 9.44036 24.3003 9.80037 24.3003C10.1604 24.3003 10.4003 24.5402 10.4003 24.9002C10.4003 26.2202 11.4803 27.3002 12.8003 27.3002C14.1202 27.3002 15.2003 26.2202 15.2003 24.9002C15.2003 24.5402 15.4402 24.3003 15.8002 24.3003C16.1602 24.3003 16.4002 24.5402 16.4002 24.9002C16.4004 26.8799 14.7802 28.5001 12.8003 28.5001H12.8003Z"/>
</mask>
<path d="M12.8003 28.5001C10.8203 28.5001 9.20044 26.8802 9.20044 24.9002C9.20044 24.5402 9.44036 24.3003 9.80037 24.3003C10.1604 24.3003 10.4003 24.5402 10.4003 24.9002C10.4003 26.2202 11.4803 27.3002 12.8003 27.3002C14.1202 27.3002 15.2003 26.2202 15.2003 24.9002C15.2003 24.5402 15.4402 24.3003 15.8002 24.3003C16.1602 24.3003 16.4002 24.5402 16.4002 24.9002C16.4004 26.8799 14.7802 28.5001 12.8003 28.5001H12.8003Z" fill="#AE9368"/>
<path d="M16.4002 24.9002H16.1502V24.9003L16.4002 24.9002ZM12.8003 28.2501C10.9584 28.2501 9.45044 26.7421 9.45044 24.9002H8.95044C8.95044 27.0183 10.6823 28.7501 12.8003 28.7501V28.2501ZM9.45044 24.9002C9.45044 24.777 9.49041 24.6938 9.54218 24.642C9.59395 24.5903 9.67715 24.5503 9.80037 24.5503V24.0503C9.56358 24.0503 9.34682 24.1303 9.18862 24.2885C9.03043 24.4467 8.95044 24.6634 8.95044 24.9002H9.45044ZM9.80037 24.5503C9.9236 24.5503 10.0068 24.5903 10.0586 24.642C10.1103 24.6938 10.1503 24.777 10.1503 24.9002H10.6503C10.6503 24.6634 10.5703 24.4467 10.4121 24.2885C10.2539 24.1303 10.0372 24.0503 9.80037 24.0503V24.5503ZM10.1503 24.9002C10.1503 26.3582 11.3423 27.5502 12.8003 27.5502V27.0502C11.6184 27.0502 10.6503 26.0821 10.6503 24.9002H10.1503ZM12.8003 27.5502C14.2583 27.5502 15.4503 26.3582 15.4503 24.9002H14.9503C14.9503 26.0821 13.9822 27.0502 12.8003 27.0502V27.5502ZM15.4503 24.9002C15.4503 24.777 15.4902 24.6938 15.542 24.642C15.5938 24.5903 15.677 24.5503 15.8002 24.5503V24.0503C15.5634 24.0503 15.3467 24.1303 15.1885 24.2885C15.0303 24.4467 14.9503 24.6634 14.9503 24.9002H15.4503ZM15.8002 24.5503C15.9234 24.5503 16.0066 24.5903 16.0584 24.642C16.1102 24.6938 16.1502 24.777 16.1502 24.9002H16.6502C16.6502 24.6634 16.5702 24.4467 16.412 24.2885C16.2538 24.1303 16.037 24.0503 15.8002 24.0503V24.5503ZM16.1502 24.9003C16.1504 26.7418 14.6422 28.2501 12.8003 28.2501V28.7501C14.9183 28.7501 16.6505 27.018 16.6502 24.9002L16.1502 24.9003ZM12.8003 28.7501H12.8003V28.2501H12.8003V28.7501Z" fill="#AE9368" mask="url(#path-3-outside-2_86_3036)"/>
</svg>
