<svg width="24" height="27" viewBox="0 0 24 27" fill="none" xmlns="http://www.w3.org/2000/svg">
<mask id="path-1-outside-1_225_7311" maskUnits="userSpaceOnUse" x="0" y="1" width="23" height="21" fill="black">
<rect fill="white" y="1" width="23" height="21"/>
<path d="M21.7364 21.6156H1.53632C1.32376 21.6156 1.16416 21.5092 1.058 21.3498C0.951596 21.1905 1.0048 20.9777 1.1112 20.8183C1.1112 20.7651 3.66291 17.2035 3.66291 14.2265V9.9738C3.66291 5.56171 7.22449 2 11.6367 2C16.0488 2 19.6105 5.56158 19.6105 9.9738V14.2265C19.6105 17.2033 22.1622 20.8183 22.1622 20.8183C22.2686 20.9777 22.2686 21.1905 22.2154 21.3498C22.1082 21.5094 21.9489 21.6156 21.7363 21.6156H21.7364ZM2.54588 20.5525H20.7792C19.9818 19.2235 18.5464 16.6188 18.5464 14.1735V9.92077C18.5464 6.09344 15.4631 3.01011 11.6357 3.01011C7.80834 3.01011 4.72507 6.09338 4.72507 9.92077V14.1735C4.72532 16.6188 3.34332 19.2235 2.54575 20.5525H2.54588Z"/>
</mask>
<path d="M21.7364 21.6156H1.53632C1.32376 21.6156 1.16416 21.5092 1.058 21.3498C0.951596 21.1905 1.0048 20.9777 1.1112 20.8183C1.1112 20.7651 3.66291 17.2035 3.66291 14.2265V9.9738C3.66291 5.56171 7.22449 2 11.6367 2C16.0488 2 19.6105 5.56158 19.6105 9.9738V14.2265C19.6105 17.2033 22.1622 20.8183 22.1622 20.8183C22.2686 20.9777 22.2686 21.1905 22.2154 21.3498C22.1082 21.5094 21.9489 21.6156 21.7363 21.6156H21.7364ZM2.54588 20.5525H20.7792C19.9818 19.2235 18.5464 16.6188 18.5464 14.1735V9.92077C18.5464 6.09344 15.4631 3.01011 11.6357 3.01011C7.80834 3.01011 4.72507 6.09338 4.72507 9.92077V14.1735C4.72532 16.6188 3.34332 19.2235 2.54575 20.5525H2.54588Z" fill="#363A44"/>
<path d="M1.058 21.3498L1.26606 21.2112L1.26591 21.211L1.058 21.3498ZM1.1112 20.8183L1.31911 20.9571L1.3612 20.8941V20.8183H1.1112ZM22.1622 20.8183L22.3702 20.6794L22.3664 20.6741L22.1622 20.8183ZM22.2154 21.3498L22.423 21.4892L22.4418 21.4611L22.4525 21.429L22.2154 21.3498ZM20.7792 20.5525V20.8025H21.2207L20.9935 20.4239L20.7792 20.5525ZM4.72507 14.1735H4.47507V14.1735L4.72507 14.1735ZM2.54575 20.5525L2.33138 20.4239L2.10416 20.8025H2.54575V20.5525ZM21.7364 21.3656H1.53632V21.8656H21.7364V21.3656ZM1.53632 21.3656C1.42073 21.3656 1.33378 21.3129 1.26606 21.2112L0.849937 21.4884C0.994533 21.7055 1.2268 21.8656 1.53632 21.8656V21.3656ZM1.26591 21.211C1.25443 21.1938 1.24556 21.1664 1.25228 21.1194C1.25929 21.0704 1.28233 21.0122 1.31911 20.9571L0.90329 20.6795C0.775617 20.8707 0.659426 21.2031 0.850085 21.4886L1.26591 21.211ZM1.3612 20.8183C1.3612 20.8654 1.34708 20.9006 1.34636 20.9026C1.34264 20.9127 1.33917 20.9199 1.33799 20.9224C1.3354 20.9277 1.33383 20.9302 1.33521 20.9279C1.33747 20.9239 1.34247 20.9157 1.35152 20.9012C1.36925 20.873 1.39558 20.8323 1.431 20.7773C1.50103 20.6686 1.60177 20.5118 1.72269 20.3158C1.96444 19.9238 2.28728 19.374 2.61043 18.7311C3.25259 17.4535 3.91291 15.7755 3.91291 14.2265H3.41291C3.41291 15.6545 2.79737 17.2458 2.16368 18.5066C1.8489 19.1328 1.53381 19.6695 1.29712 20.0533C1.17882 20.2451 1.08021 20.3986 1.01069 20.5065C0.976339 20.5598 0.947849 20.6039 0.928195 20.6352C0.918559 20.6505 0.909227 20.6656 0.901838 20.6785C0.898389 20.6845 0.893156 20.6938 0.888113 20.7042C0.885709 20.7091 0.881309 20.7185 0.876978 20.7303C0.875633 20.7339 0.861202 20.7704 0.861202 20.8183H1.3612ZM3.91291 14.2265V9.9738H3.41291V14.2265H3.91291ZM3.91291 9.9738C3.91291 5.69978 7.36256 2.25 11.6367 2.25V1.75C7.08641 1.75 3.41291 5.42364 3.41291 9.9738H3.91291ZM11.6367 2.25C15.9107 2.25 19.3605 5.69966 19.3605 9.9738H19.8605C19.8605 5.42351 16.1869 1.75 11.6367 1.75V2.25ZM19.3605 9.9738V14.2265H19.8605V9.9738H19.3605ZM19.3605 14.2265C19.3605 15.7751 20.0206 17.4662 20.6627 18.7505C20.9859 19.3968 21.3089 19.9485 21.5511 20.3388C21.6723 20.534 21.7734 20.6892 21.8445 20.7958C21.8801 20.8492 21.9082 20.8904 21.9275 20.9185C21.9371 20.9326 21.9446 20.9434 21.9497 20.9507C21.9523 20.9544 21.9543 20.9573 21.9557 20.9592C21.9564 20.9602 21.9569 20.961 21.9573 20.9615C21.9575 20.9618 21.9576 20.962 21.9577 20.9622C21.9578 20.9622 21.9578 20.9623 21.9579 20.9624C21.9579 20.9624 21.958 20.9625 22.1622 20.8183C22.3664 20.6741 22.3665 20.6742 22.3665 20.6742C22.3665 20.6742 22.3665 20.6742 22.3664 20.6741C22.3664 20.6741 22.3663 20.674 22.3662 20.6738C22.366 20.6734 22.3656 20.6729 22.365 20.6721C22.364 20.6706 22.3623 20.6682 22.36 20.6649C22.3555 20.6584 22.3486 20.6486 22.3396 20.6354C22.3215 20.6091 22.2948 20.5698 22.2606 20.5185C22.1921 20.4158 22.0939 20.2653 21.9759 20.0751C21.7397 19.6945 21.4247 19.1564 21.11 18.5269C20.4763 17.2596 19.8605 15.6547 19.8605 14.2265H19.3605ZM21.9543 20.9571C22.0059 21.0344 22.0147 21.1614 21.9783 21.2707L22.4525 21.429C22.5225 21.2195 22.5314 20.921 22.3701 20.6795L21.9543 20.9571ZM22.0078 21.2105C21.9389 21.3132 21.8518 21.3656 21.7363 21.3656V21.8656C22.0459 21.8656 22.2776 21.7057 22.423 21.4892L22.0078 21.2105ZM21.7363 21.8656H21.7364V21.3656H21.7363V21.8656ZM2.54588 20.8025H20.7792V20.3025H2.54588V20.8025ZM20.9935 20.4239C20.1943 19.0915 18.7964 16.5416 18.7964 14.1735H18.2964C18.2964 16.6961 19.7694 19.3554 20.5648 20.6811L20.9935 20.4239ZM18.7964 14.1735V9.92077H18.2964V14.1735H18.7964ZM18.7964 9.92077C18.7964 5.95537 15.6012 2.76011 11.6357 2.76011V3.26011C15.3251 3.26011 18.2964 6.23151 18.2964 9.92077H18.7964ZM11.6357 2.76011C7.67026 2.76011 4.47507 5.95531 4.47507 9.92077H4.97507C4.97507 6.23145 7.94641 3.26011 11.6357 3.26011V2.76011ZM4.47507 9.92077V14.1735H4.97507V9.92077H4.47507ZM4.47507 14.1735C4.47531 16.5437 3.12837 19.0958 2.33138 20.4239L2.76011 20.6812C3.55827 19.3511 4.97533 16.694 4.97507 14.1735L4.47507 14.1735ZM2.54575 20.8025H2.54588V20.3025H2.54575V20.8025Z" fill="#363A44" mask="url(#path-1-outside-1_225_7311)"/>
<mask id="path-3-outside-2_225_7311" maskUnits="userSpaceOnUse" x="7.44702" y="21.6792" width="8" height="5" fill="black">
<rect fill="white" x="7.44702" y="21.6792" width="8" height="5"/>
<path d="M11.6364 26.4001C9.88221 26.4001 8.44702 24.9649 8.44702 23.2107C8.44702 22.8918 8.65958 22.6792 8.97855 22.6792C9.29751 22.6792 9.51007 22.8918 9.51007 23.2107C9.51007 24.3802 10.467 25.337 11.6364 25.337C12.8058 25.337 13.7627 24.3802 13.7627 23.2107C13.7627 22.8918 13.9753 22.6792 14.2942 22.6792C14.6132 22.6792 14.8258 22.8918 14.8258 23.2107C14.826 24.9647 13.3906 26.4001 11.6364 26.4001H11.6364Z"/>
</mask>
<path d="M11.6364 26.4001C9.88221 26.4001 8.44702 24.9649 8.44702 23.2107C8.44702 22.8918 8.65958 22.6792 8.97855 22.6792C9.29751 22.6792 9.51007 22.8918 9.51007 23.2107C9.51007 24.3802 10.467 25.337 11.6364 25.337C12.8058 25.337 13.7627 24.3802 13.7627 23.2107C13.7627 22.8918 13.9753 22.6792 14.2942 22.6792C14.6132 22.6792 14.8258 22.8918 14.8258 23.2107C14.826 24.9647 13.3906 26.4001 11.6364 26.4001H11.6364Z" fill="#363A44"/>
<path d="M14.8258 23.2107H14.5758V23.2108L14.8258 23.2107ZM11.6364 26.1501C10.0203 26.1501 8.69702 24.8268 8.69702 23.2107H8.19702C8.19702 25.103 9.74414 26.6501 11.6364 26.6501V26.1501ZM8.69702 23.2107C8.69702 23.108 8.73015 23.0419 8.76995 23.0021C8.80975 22.9623 8.87585 22.9292 8.97855 22.9292V22.4292C8.76228 22.4292 8.56262 22.5024 8.4164 22.6486C8.27018 22.7948 8.19702 22.9945 8.19702 23.2107H8.69702ZM8.97855 22.9292C9.08124 22.9292 9.14735 22.9623 9.18715 23.0021C9.22695 23.0419 9.26007 23.108 9.26007 23.2107H9.76007C9.76007 22.9945 9.68692 22.7948 9.5407 22.6486C9.39448 22.5024 9.19482 22.4292 8.97855 22.4292V22.9292ZM9.26007 23.2107C9.26007 24.5182 10.3289 25.587 11.6364 25.587V25.087C10.605 25.087 9.76007 24.2421 9.76007 23.2107H9.26007ZM11.6364 25.587C12.9439 25.587 14.0127 24.5182 14.0127 23.2107H13.5127C13.5127 24.2421 12.6678 25.087 11.6364 25.087V25.587ZM14.0127 23.2107C14.0127 23.108 14.0458 23.0419 14.0856 23.0021C14.1254 22.9623 14.1916 22.9292 14.2942 22.9292V22.4292C14.078 22.4292 13.8783 22.5024 13.7321 22.6486C13.5859 22.7948 13.5127 22.9945 13.5127 23.2107H14.0127ZM14.2942 22.9292C14.3969 22.9292 14.463 22.9623 14.5028 23.0021C14.5426 23.0419 14.5758 23.108 14.5758 23.2107H15.0758C15.0758 22.9945 15.0026 22.7948 14.8564 22.6486C14.7102 22.5024 14.5105 22.4292 14.2942 22.4292V22.9292ZM14.5758 23.2108C14.576 24.8266 13.2525 26.1501 11.6364 26.1501V26.6501C13.5286 26.6501 15.076 25.1027 15.0758 23.2107L14.5758 23.2108ZM11.6364 26.6501H11.6364V26.1501H11.6364V26.6501Z" fill="#363A44" mask="url(#path-3-outside-2_225_7311)"/>
<path d="M18.5 9.75C20.8472 9.75 22.75 7.84721 22.75 5.5C22.75 3.15279 20.8472 1.25 18.5 1.25C16.1528 1.25 14.25 3.15279 14.25 5.5C14.25 7.84721 16.1528 9.75 18.5 9.75Z" fill="#EF3024" stroke="white" stroke-width="1.5"/>
</svg>
