<svg width="39" height="39" viewBox="0 0 39 39" fill="none" xmlns="http://www.w3.org/2000/svg">
<path fill-rule="evenodd" clip-rule="evenodd" d="M19.5 38C29.7173 38 38 29.7173 38 19.5C38 9.28273 29.7173 1 19.5 1C9.28273 1 1 9.28273 1 19.5C1 29.7173 9.28273 38 19.5 38Z" fill="white" stroke="#CABCA5"/>
<path d="M16.2214 12.6597C14.7933 14.6197 12.7773 16.0478 10.4814 16.7757L7.84939 17.5876C6.47734 18.0075 5.69334 19.4915 6.11344 20.8636L6.95349 23.5796C7.37341 24.9517 8.85739 25.7357 10.2295 25.3156L12.8894 30.5796C13.0574 30.9436 13.4775 31.1116 13.8695 30.9995L16.3894 30.2155C16.6135 30.1315 16.8094 29.9635 16.9215 29.7395C17.0055 29.5155 17.0055 29.2635 16.8936 29.0395L14.4016 24.1395C16.2496 23.8315 18.1535 23.9995 19.9176 24.6434L19.9736 24.6713L16.2494 12.6318L16.2214 12.6597Z" fill="#CABCA5"/>
<path d="M23.6695 20.1916C24.6214 19.2955 25.0134 17.9237 24.6214 16.6076C24.2015 15.2916 23.1095 14.3957 21.8214 14.1717L20.5333 9.97169C20.2532 9.04769 19.0214 8.82364 18.4333 9.60763L17.8452 10.4195L22.4933 25.5395L23.4452 25.8755C24.3692 26.2114 25.2651 25.3434 24.9853 24.4194L23.6695 20.1916Z" fill="#CABCA5"/>
<path d="M26.3855 16.0756C26.5816 16.6916 27.2256 17.0276 27.8416 16.8317L31.7614 15.6278C32.3774 15.4317 32.7134 14.7877 32.5175 14.1717C32.3214 13.5557 31.6774 13.2198 31.0614 13.4157L27.1416 14.6196C26.5537 14.8157 26.2176 15.4596 26.3855 16.0756Z" fill="#CABCA5"/>
<path d="M31.6775 19.9958L27.7855 18.6798C27.1695 18.4837 26.5256 18.7917 26.3295 19.4078C26.1334 20.0238 26.4414 20.6677 27.0574 20.8638L30.9494 22.1798C31.2014 22.2638 31.4254 22.2638 31.6494 22.1798C31.9854 22.0679 32.2654 21.8158 32.4055 21.4519C32.6016 20.864 32.2936 20.1919 31.6775 19.9958Z" fill="#CABCA5"/>
<path d="M28.3735 8.23574C27.8696 7.84375 27.1414 7.95566 26.7495 8.45976L24.2575 11.7637C23.8655 12.2676 23.9774 12.9957 24.4815 13.3877C24.7895 13.6117 25.1815 13.6677 25.5174 13.5556C25.7415 13.4996 25.9374 13.3595 26.1055 13.1357L28.5975 9.83181C28.9895 9.32771 28.8774 8.59976 28.3735 8.23571L28.3735 8.23574Z" fill="#CABCA5"/>
</svg>
