<svg width="30" height="30" viewBox="0 0 30 30" fill="none" xmlns="http://www.w3.org/2000/svg">
<path fill-rule="evenodd" clip-rule="evenodd" d="M15 30C23.2843 30 30 23.2843 30 15C30 6.71573 23.2843 0 15 0C6.71573 0 0 6.71573 0 15C0 23.2843 6.71573 30 15 30Z" fill="#EFEFF4"/>
<path fill-rule="evenodd" clip-rule="evenodd" d="M17.2977 15L11.3679 20.9304C11.1482 21.1501 11.1482 21.5062 11.3679 21.7259C11.5876 21.9456 11.9438 21.9455 12.1634 21.7259L18.1929 15.6959C18.3774 15.5116 18.4812 15.2612 18.4812 15C18.4812 14.7388 18.3774 14.4884 18.1926 14.3038L12.1634 8.27415C11.9438 8.05447 11.5876 8.05445 11.3679 8.27411C11.1482 8.49377 11.1482 8.84992 11.3679 9.0696L17.2977 15Z" fill="#242A37"/>
</svg>
