<svg width="45" height="29" viewBox="0 0 45 29" fill="none" xmlns="http://www.w3.org/2000/svg">
<path d="M12.0164 15.041L12.0164 15.041C11.3438 14.3687 10.9659 13.4567 10.9659 12.5057C10.9659 11.5549 11.3438 10.6429 12.0164 9.97028L11.9304 9.88428L12.0164 9.97028C12.6887 9.298 13.6008 8.92016 14.5514 8.92016C15.5025 8.92016 16.4145 9.29799 17.0868 9.97028L17.1752 9.88189L17.0868 9.97028C17.7594 10.6429 18.1369 11.5549 18.1369 12.5057C18.1369 13.4568 17.7594 14.3688 17.0868 15.041L17.0868 15.041C16.4145 15.7133 15.5024 16.0911 14.5514 16.0911C13.6007 16.0911 12.6887 15.7133 12.0164 15.041ZM14.5514 7.68079C13.2718 7.68079 12.0445 8.18917 11.1398 9.09399C10.235 9.9988 9.72656 11.226 9.72656 12.5057C9.72656 13.7853 10.2349 15.0125 11.1397 15.9173C12.0446 16.8225 13.2718 17.3305 14.5514 17.3305C15.831 17.3305 17.0586 16.8225 17.9634 15.9173C18.8683 15.0125 19.3766 13.7853 19.3766 12.5057C19.3766 11.226 18.8683 9.99876 17.9634 9.09399C17.0586 8.18916 15.831 7.68079 14.5514 7.68079Z" fill="#AE9368" stroke="#AE9368" stroke-width="0.25"/>
<path d="M7.96137 20.8876C8.7293 19.8863 9.8019 19.1629 11.0167 18.8254L11.1178 18.8929L11.1243 18.8972L11.1312 18.9007L11.3247 18.9976L11.5681 19.1435L11.5679 19.1439L11.5764 19.1481L11.7741 19.2472L11.774 19.2475L11.7837 19.2514L12.0263 19.3485L12.2193 19.4452L12.2191 19.4456L12.2289 19.4495L12.4763 19.5486L12.4987 19.5575H12.5227H12.7002L12.9777 19.6501L12.997 19.6566H13.0173H16.2826H16.3067L16.329 19.6476L16.5541 19.5575H16.7278H16.7519L16.7742 19.5486L17.0217 19.4495L17.0218 19.4499L17.0312 19.4452L17.2242 19.3485L17.4668 19.2514L17.5028 19.237L17.5243 19.2048L17.6081 19.0794L17.8274 18.9479L18.0209 18.851L18.039 18.8419L18.0533 18.8276L18.1008 18.7802C19.3173 19.1215 20.3903 19.8505 21.1563 20.8572C21.9364 21.8828 22.3536 23.1389 22.3421 24.4277V24.4288V27.2724H6.76069V24.4288V24.4287C6.75968 23.1483 7.18196 21.9035 7.96136 20.8876L7.96137 20.8876ZM22.0485 20.0151L22.0485 20.0151C21.0503 18.7609 19.6549 17.884 18.0919 17.5291L18.0919 17.529L18.0866 17.528C17.9123 17.4963 17.7326 17.5404 17.5932 17.6498C16.699 18.2902 15.6266 18.6345 14.5269 18.6345C13.4269 18.6345 12.3548 18.2902 11.4603 17.6498C11.3209 17.5404 11.1413 17.4963 10.9669 17.528L10.9669 17.5279L10.9608 17.5293C9.40725 17.894 8.02299 18.7752 7.03509 20.0287C6.04726 21.2818 5.51356 22.8331 5.52159 24.4291V27.2723H5.4485C4.56333 27.2723 3.71414 26.9204 3.08806 26.2944C2.46203 25.6684 2.11047 24.8195 2.11047 23.9339V5.13414C2.11047 4.24868 2.46207 3.39976 3.08806 2.77369C3.71411 2.14765 4.56333 1.79575 5.4485 1.79575H39.486C40.3712 1.79575 41.2204 2.14768 41.8465 2.7737C42.4725 3.39972 42.8241 4.24858 42.8241 5.13414L42.824 23.9339C42.824 24.8194 42.4724 25.6683 41.8464 26.2944C41.2204 26.9204 40.3711 27.2723 39.486 27.2723H23.5817V24.4292C23.5873 22.8265 23.0462 21.2693 22.0485 20.0151ZM39.4859 0.556641H5.44835L2.3 1.98579L2.21161 1.8974C2.21161 1.8974 2.21161 1.8974 2.21161 1.8974C1.35303 2.75598 0.87085 3.92035 0.87085 5.13449V23.9343C0.87085 25.1483 1.353 26.3128 2.21161 27.1714C3.06983 28.0296 4.23428 28.5121 5.44835 28.5121H39.4859C40.6999 28.5121 41.8644 28.0296 42.7226 27.1714C43.5812 26.3128 44.0634 25.1484 44.0634 23.9343V5.13449C44.0634 3.92044 43.5812 2.75597 42.7226 1.8974C41.8644 1.03918 40.7 0.556641 39.4859 0.556641Z" fill="#AE9368" stroke="#AE9368" stroke-width="0.25"/>
<path d="M26.6229 12.1854H32.7084C33.0505 12.1854 33.3279 11.9079 33.3279 11.5656C33.3279 11.2236 33.0504 10.946 32.7084 10.946H26.6229C26.2805 10.946 26.0034 11.2236 26.0034 11.5656C26.0034 11.9078 26.2805 12.1854 26.6229 12.1854Z" fill="#AE9368" stroke="#AE9368" stroke-width="0.25"/>
<path d="M37.6555 16.8828H26.6229C26.2805 16.8828 26.0034 17.1604 26.0034 17.5027C26.0034 17.8446 26.2805 18.1222 26.6229 18.1222H37.6555C37.9975 18.1222 38.275 17.8447 38.275 17.5027C38.275 17.1604 37.9975 16.8828 37.6555 16.8828Z" fill="#AE9368" stroke="#AE9368" stroke-width="0.25"/>
</svg>
