<svg width="27" height="26" viewBox="0 0 27 26" fill="none" xmlns="http://www.w3.org/2000/svg">
<path d="M25.5629 19.3593L22.9536 16.75C22.4379 16.2344 21.7661 15.9531 21.0317 15.9531C20.313 15.9531 19.6254 16.2344 19.1099 16.75L18.2349 17.625C17.3442 18.5156 14.5942 17.125 11.9536 14.4843C10.6723 13.2031 9.60986 11.7968 9.03171 10.6093C8.70358 9.95309 8.25043 8.74998 8.81296 8.20305L9.68796 7.32805C10.2036 6.81242 10.4848 6.14055 10.4848 5.4062C10.4848 4.67184 10.2036 3.99991 9.68796 3.48434L7.07861 0.874982C6.56298 0.359353 5.89111 0.078125 5.15675 0.078125C4.43804 0.078125 3.75046 0.359375 3.23489 0.874982L1.51618 2.60934C0.516178 3.5937 -0.233822 5.62498 1.79743 9.62498C3.14114 12.2656 5.43807 15.2813 8.29743 18.1407C12.5787 22.422 17.6881 25.9221 21.1881 25.9221C22.235 25.9221 23.1256 25.6096 23.8288 24.9221L25.5631 23.1878C26.6256 22.1409 26.6256 20.4221 25.5631 19.3596L25.5629 19.3593ZM24.7036 22.3125L22.9692 24.0468C21.6255 25.3906 18.8911 24.2968 17.3755 23.5312C14.8599 22.2499 11.938 20.0156 9.17264 17.2656C3.31328 11.4062 0.391213 5.48414 2.39136 3.48414L4.12571 1.74978C4.40696 1.46853 4.78196 1.31228 5.17257 1.31228C5.56318 1.31228 5.93821 1.46853 6.21943 1.74978L8.82878 4.35914C9.11003 4.64039 9.26628 5.01539 9.26628 5.406C9.26628 5.7966 9.11003 6.17164 8.82878 6.45285L7.95378 7.32785C6.14128 9.14035 8.51629 12.781 11.0944 15.3593C13.0319 17.2968 15.5944 19.1249 17.5007 19.1249C18.1257 19.1249 18.6726 18.9374 19.1101 18.4843L19.9851 17.6093C20.2663 17.328 20.6413 17.1718 21.0319 17.1718C21.4225 17.1718 21.7976 17.328 22.0788 17.6093L24.6881 20.2187C25.2663 20.8124 25.2663 21.7499 24.7038 22.3124L24.7036 22.3125Z" fill="black"/>
</svg>
