<svg width="30" height="30" viewBox="0 0 30 30" fill="none" xmlns="http://www.w3.org/2000/svg">
<path fill-rule="evenodd" clip-rule="evenodd" d="M15 30C23.2843 30 30 23.2843 30 15C30 6.71573 23.2843 0 15 0C6.71573 0 0 6.71573 0 15C0 23.2843 6.71573 30 15 30Z" fill="#AE9368"/>
<path fill-rule="evenodd" clip-rule="evenodd" d="M15 6C14.5858 6 14.25 6.33579 14.25 6.75V14.25H6.75C6.33579 14.25 6 14.5858 6 15C6 15.4142 6.33579 15.75 6.75 15.75H14.25V23.25C14.25 23.6642 14.5858 24 15 24C15.4142 24 15.75 23.6642 15.75 23.25V15.75H23.25C23.6642 15.75 24 15.4142 24 15C24 14.5858 23.6642 14.25 23.25 14.25H15.75V6.75C15.75 6.33579 15.4142 6 15 6Z" fill="white"/>
</svg>
