<svg width="28" height="28" viewBox="0 0 28 28" fill="none" xmlns="http://www.w3.org/2000/svg">
<path d="M22.4001 0.149981C21.378 0.152325 20.3789 0.451151 19.5232 1.01038C18.6677 1.56937 17.993 2.36482 17.5807 3.29998C17.2973 3.96394 17.1508 4.67812 17.1501 5.39998C17.1501 6.7924 17.7033 8.12764 18.6879 9.11224C19.6725 10.0968 21.0077 10.65 22.4001 10.65C23.122 10.6493 23.8362 10.5028 24.5001 10.2194C25.9919 9.57515 27.1013 8.27621 27.5041 6.70193C27.9072 5.12765 27.5585 3.45563 26.5598 2.17355C25.5611 0.891533 24.0251 0.144353 22.4001 0.149933L22.4001 0.149981Z" fill="white"/>
<path d="M5.60012 27.4501H19.2501C20.6425 27.4501 21.9778 26.897 22.9624 25.9123C23.947 24.9277 24.5001 23.5925 24.5001 22.2001V12.4459C22.7988 12.9514 20.9721 12.8246 19.357 12.0892C17.7417 11.3534 16.447 10.0588 15.7113 8.44343C14.9758 6.82835 14.849 5.00165 15.3545 3.30029H5.60034C4.20792 3.30029 2.87268 3.85342 1.88808 4.83803C0.903482 5.82265 0.350342 7.15787 0.350342 8.55029V22.2003C0.350342 23.5927 0.90347 24.928 1.88808 25.9126C2.87269 26.8972 4.20792 27.4503 5.60034 27.4503L5.60012 27.4501Z" fill="white"/>
</svg>
