<svg width="30" height="30" viewBox="0 0 30 30" fill="none" xmlns="http://www.w3.org/2000/svg">
<path fill-rule="evenodd" clip-rule="evenodd" d="M15 30C23.2843 30 30 23.2843 30 15C30 6.71573 23.2843 0 15 0C6.71573 0 0 6.71573 0 15C0 23.2843 6.71573 30 15 30Z" fill="#EFEFF4"/>
<path fill-rule="evenodd" clip-rule="evenodd" d="M12.3868 15L18.3167 20.9304C18.5363 21.1501 18.5363 21.5062 18.3166 21.7259C18.097 21.9456 17.7408 21.9455 17.5212 21.7259L11.4917 15.6959C11.3072 15.5116 11.2034 15.2612 11.2034 15C11.2034 14.7388 11.3072 14.4884 11.492 14.3038L17.5212 8.27415C17.7408 8.05447 18.097 8.05445 18.3166 8.27411C18.5363 8.49377 18.5363 8.84992 18.3167 9.0696L12.3868 15Z" fill="#242A37"/>
</svg>
