<svg width="26" height="26" viewBox="0 0 26 26" fill="none" xmlns="http://www.w3.org/2000/svg">
<path d="M13 0C5.82947 0 0 5.82947 0 13C0 20.1705 5.82947 26 13 26C20.1705 26 26 20.1705 26 13C26 5.82947 20.1705 0 13 0ZM13 20.8821C12.2337 20.8821 11.6043 20.2527 11.6043 19.4864C11.6043 18.72 12.2337 18.0906 13 18.0906C13.7663 18.0906 14.3957 18.72 14.3957 19.4864C14.3957 20.2525 13.7936 20.8821 13 20.8821ZM14.3684 13.7116C14.2315 13.7664 14.1221 13.9306 14.1221 14.122V15.5178C14.1221 16.1199 13.6296 16.6124 13.0275 16.6124C12.4254 16.6124 11.9329 16.1199 11.9329 15.5178V14.122C11.9329 12.9726 12.6444 11.96 13.7117 11.6041C14.6149 11.3031 15.4085 10.3726 15.1895 9.11356C15.0253 8.23767 14.3136 7.52619 13.4379 7.36198C12.781 7.25259 12.1243 7.41677 11.6316 7.82722C11.0843 8.26535 10.8105 8.89478 10.8105 9.52421C10.8105 10.1263 10.3179 10.6188 9.71583 10.6188C9.11373 10.6188 8.62119 10.1263 8.62119 9.52421C8.62119 8.21057 9.19603 6.97904 10.1813 6.15794C11.1666 5.30957 12.4802 4.95368 13.794 5.19995C15.5729 5.50101 17.0234 6.9788 17.3244 8.73037C17.7074 10.9474 16.4759 13.0273 14.3685 13.7114L14.3684 13.7116Z" fill="white"/>
</svg>
