<svg width="28" height="25" viewBox="0 0 28 25" fill="none" xmlns="http://www.w3.org/2000/svg">
<path d="M27.15 12.4941L27.15 12.492C27.1461 12.2174 26.9067 12.0188 26.6391 12.0188H26.6388H1.35839C1.09389 12.0188 0.85 12.2199 0.85 12.4941V12.7661C0.85 13.0396 1.09063 13.2414 1.35839 13.2414H26.6416C26.9061 13.2414 27.15 13.0402 27.15 12.7661L27.15 12.4941ZM2.78654 3.10435V3.04219C2.80554 2.78773 2.94061 2.53734 3.18472 2.3357L3.18504 2.33544C3.47053 2.0983 3.86009 1.96337 4.27876 1.96337H10.9916H11.1416V1.81337V1V0.85H10.9916H4.28108C2.86355 0.85 1.67062 1.84177 1.67062 3.10714V9.82742V9.97742H1.82062H2.63654H2.78654V9.82742V3.10435ZM3.25784 23.1347L3.24585 23.1248C2.97928 22.9042 2.84524 22.6315 2.84524 22.3558V15.6355V15.4855H2.69524H1.87931H1.72931V15.6355V22.3558C1.72931 23.6212 2.9222 24.6129 4.33978 24.6129H11.0526H11.2026V24.4629V23.647V23.497H11.0526H4.3421C3.92717 23.497 3.5449 23.366 3.25784 23.1347ZM24.6369 23.1628L24.6366 23.1631C24.3511 23.4002 23.9615 23.5351 23.5429 23.5351H16.83H16.68V23.6851V24.5011V24.6511H16.83H23.5429C24.9604 24.6511 26.1533 23.6593 26.1533 22.3939V15.6736V15.5236H26.0033H25.1874H25.0374V15.6736L25.0374 22.3939C25.0374 22.6696 24.9009 22.9447 24.6369 23.1628ZM24.6239 2.37352L24.6241 2.37372C24.8907 2.59434 25.0247 2.86696 25.0247 3.14269V9.86298V10.013H25.1747H25.9906H26.1406V9.86298V3.14269C26.1406 1.87733 24.9478 0.885556 23.5302 0.885556H16.8173H16.6673V1.03556V1.85399V2.00399H16.8173H23.5302C23.945 2.00399 24.3306 2.13394 24.6148 2.36603C24.6179 2.36852 24.6209 2.37102 24.6239 2.37352Z" fill="#363A44" stroke="#363A44" stroke-width="0.3"/>
</svg>
