<svg width="126" height="144" viewBox="0 0 126 144" fill="none" xmlns="http://www.w3.org/2000/svg">
<path d="M63.7234 0.792467C66.8982 2.81714 70.1629 4.70201 73.5272 6.41392C82.6625 11.0682 92.3834 14.5306 102.353 16.9373C110.099 18.8139 117.994 20.0124 125.93 20.7072C125.921 22.2365 125.905 23.7574 125.88 25.2867C125.723 32.6187 125.335 39.951 124.583 47.251C124.011 52.7315 123.26 58.1882 122.276 63.6105C121.508 67.8839 120.589 72.1424 119.515 76.3496C118.697 79.5575 117.78 82.7476 116.754 85.8972C115.895 88.5516 114.961 91.1715 113.943 93.7677C108.446 107.755 100.37 121.147 88.623 130.762C87.1339 131.977 85.5963 133.134 84.0091 134.208C81.6453 135.812 79.1653 137.251 76.5939 138.5C73.7264 139.904 70.7411 141.07 67.6744 141.996C66.1202 142.467 64.5411 142.865 62.9454 143.219C61.9213 142.996 61.9213 142.996 60.9041 142.748C58.9029 142.236 56.9198 141.673 54.9684 141.012C51.5044 139.83 48.1317 138.375 44.9169 136.632C41.7588 134.928 38.7417 132.96 35.9145 130.762C33.8553 129.15 31.8888 127.413 30.0288 125.57C18.9669 114.618 11.9907 100.225 7.58408 85.4542C6.88104 83.0974 6.23613 80.7171 5.65765 78.3285C4.83975 74.996 4.13671 71.6484 3.52503 68.2756C2.80541 64.2913 2.21031 60.2822 1.73975 56.2561C1.11146 51.0485 0.681039 45.8156 0.400125 40.5733C0.0444579 33.9609 -0.0454965 27.3389 0.0195504 20.7099C1.04503 20.6019 2.07054 20.494 3.10293 20.3708C6.81479 19.8989 10.5196 19.3121 14.1896 18.5593C20.1572 17.3359 26.0429 15.7333 31.8224 13.7984C39.0962 11.3682 46.1972 8.4327 53.1334 5.16831C56.4396 3.61416 59.7058 1.96868 62.9453 0.289795C63.2028 0.455866 63.4671 0.628856 63.7231 0.794935L63.7234 0.792467ZM61.1438 11.6301C58.4659 12.9365 55.7714 14.2166 53.0505 15.4415C47.7348 17.8219 42.321 20.0043 36.8157 21.9224C31.0529 23.9305 25.1757 25.6343 19.2233 26.9891C16.05 27.7087 12.8586 28.3121 9.64235 28.8325L9.31989 28.8823C9.40293 34.959 9.65895 41.0261 10.1641 47.0766C10.5599 51.9385 11.1066 56.7904 11.8497 61.619C12.4116 65.3142 13.0814 68.9843 13.8841 72.6295C14.4709 75.3074 15.1241 77.97 15.8673 80.6066C16.4707 82.7641 17.1239 84.9052 17.8435 87.0309C21.994 99.3062 28.2425 111.211 37.7997 120.147C39.2376 121.485 40.7336 122.75 42.3045 123.934C44.5201 125.611 46.8755 127.124 49.3307 128.447C53.6221 130.762 58.2016 132.464 62.9292 133.671C63.6156 133.49 64.3021 133.29 64.9885 133.092C68.3362 132.05 71.5775 130.72 74.6609 129.033C76.3133 128.124 77.9172 127.123 79.4632 126.041C89.408 119.088 96.667 108.937 101.899 98.1164C102.817 96.2315 103.676 94.305 104.478 92.3703C105.462 89.9982 106.363 87.6012 107.19 85.1712C108.189 82.2608 109.092 79.3173 109.893 76.3502C110.968 72.4158 111.878 68.4478 112.662 64.4455C113.663 59.3292 114.439 54.1712 115.034 48.9869C115.779 42.506 116.226 36.0002 116.465 29.4778L116.482 29.0322C115.3 28.8661 114.108 28.6931 112.927 28.5104C111.745 28.3208 110.555 28.1229 109.373 27.9153C101.825 26.5272 94.3765 24.6672 87.1027 22.1954C81.6626 20.3354 76.3303 18.1611 71.1722 15.6315C68.3864 14.267 65.667 12.7959 62.9875 11.2501L62.4921 10.9608C62.0451 11.1836 61.5991 11.4073 61.1438 11.6301Z" fill="#AE9368"/>
<path d="M78.3832 62.9528H74.7807L74.7812 55.3632C74.7812 48.615 69.2539 43.0877 62.5057 43.0877C55.7576 43.0877 50.2303 48.615 50.2303 55.3632V62.9528H46.6277C44.0093 62.9528 41.9 65.0621 41.9 67.6805V92.0309C41.9 94.6494 44.0093 96.7587 46.6277 96.7587H78.4541C81.0726 96.7587 83.1819 94.6494 83.1819 92.0309L83.1824 67.6805L83.1824 67.6778C83.1099 65.062 81.0021 62.9528 78.3832 62.9528ZM52.5664 55.3632C52.5664 49.8648 57.0074 45.4239 62.5057 45.4239C68.0041 45.4239 72.4451 49.8648 72.4451 55.3632V62.9528H52.5667L52.5664 55.3632Z" fill="#AE9368" stroke="#AE9368" stroke-width="0.2"/>
<path d="M66.1663 77.2216V77.2216C66.1657 75.1728 64.5544 73.5616 62.5056 73.5616C60.4555 73.5616 58.8456 75.2452 58.8456 77.2216C58.8456 78.8807 59.9117 80.1825 61.3379 80.7094V85.6945V85.7945H61.4379H63.574H63.674V85.6945V80.7127C65.1041 80.2498 66.1663 78.8761 66.1663 77.2216Z" fill="white" stroke="white" stroke-width="0.2"/>
</svg>
