<svg width="26" height="38" viewBox="0 0 26 38" fill="none" xmlns="http://www.w3.org/2000/svg">
<path d="M18.3191 6.00932V4.92246C18.3191 2.48362 16.3972 1.08221 14.0258 1.08221H12.9523C10.5812 1.08221 8.65894 2.48322 8.65894 4.92246V6.40422H9.32416V6.94181C9.32416 8.28458 10.3827 9.37299 11.6878 9.37299H15.2902C16.5957 9.37299 17.6538 8.28418 17.6538 6.94181V6.40462H18.3191L18.3191 6.00932Z" stroke="#AE9368" stroke-miterlimit="10" stroke-linecap="round" stroke-linejoin="round"/>
<path d="M11.1265 5.87227C11.1265 5.14144 11.7023 4.54919 12.4128 4.54919H14.2503C14.9608 4.54919 15.5366 5.14144 15.5366 5.87227C15.5366 6.60309 14.9608 7.19534 14.2503 7.19534H12.4128C11.7026 7.19534 11.1265 6.6035 11.1265 5.87227Z" stroke="#AE9368" stroke-miterlimit="10" stroke-linecap="round" stroke-linejoin="round"/>
<path d="M17.7642 6.49316H25.3892V36.5172H1.16919V6.49316H8.98679" stroke="#AE9368" stroke-miterlimit="10" stroke-linecap="round" stroke-linejoin="round"/>
<path d="M22.2393 6.49316V32.9172H4.5293V6.49316" stroke="#AE9368" stroke-miterlimit="10" stroke-linecap="round" stroke-linejoin="round"/>
<path d="M7.50439 13.1892H19.3691" stroke="#AE9368" stroke-miterlimit="10" stroke-linecap="round" stroke-linejoin="round"/>
<path d="M7.50439 16.4833H19.3691" stroke="#AE9368" stroke-miterlimit="10" stroke-linecap="round" stroke-linejoin="round"/>
<path d="M7.50439 19.7775H19.3691" stroke="#AE9368" stroke-miterlimit="10" stroke-linecap="round" stroke-linejoin="round"/>
<path d="M7.50439 23.0716H19.3691" stroke="#AE9368" stroke-miterlimit="10" stroke-linecap="round" stroke-linejoin="round"/>
<path d="M7.50439 26.3652H19.3691" stroke="#AE9368" stroke-miterlimit="10" stroke-linecap="round" stroke-linejoin="round"/>
<path d="M14.9592 29.4975H19.369" stroke="#AE9368" stroke-miterlimit="10" stroke-linecap="round" stroke-linejoin="round"/>
</svg>
