<svg width="33" height="37" viewBox="0 0 33 37" fill="none" xmlns="http://www.w3.org/2000/svg">
<path fill-rule="evenodd" clip-rule="evenodd" d="M21.1879 6.63172C21.6 7.99895 23.0019 8.81218 24.3934 8.49113L28.4125 7.56006C29.9762 7.20765 31.5871 7.91491 32.386 9.30458C33.1848 10.6942 32.9853 12.4422 31.8938 13.6161L29.0788 16.6496C28.1041 17.6976 28.1041 19.3204 29.0788 20.3684L31.8938 23.4019C32.9878 24.5754 33.1888 26.3251 32.3895 27.7162C31.5902 29.1073 29.9774 29.8148 28.4125 29.4607L24.3934 28.5269C23.0022 28.2072 21.6011 29.0199 21.1879 30.3863L19.981 34.3399C19.5205 35.8763 18.1065 36.9287 16.5025 36.9287C14.8985 36.9287 13.4845 35.8763 13.024 34.3399L11.8171 30.3726C11.4039 29.0063 10.0028 28.1936 8.61163 28.5132L4.59247 29.447C3.02765 29.8011 1.41478 29.0937 0.615475 27.7026C-0.183831 26.3115 0.0172093 24.5618 1.1112 23.3882L3.92625 20.3547C4.90088 19.3067 4.90088 17.684 3.92625 16.6359L1.1112 13.6024C0.0197356 12.4286 -0.17979 10.6806 0.619049 9.29093C1.41789 7.90126 3.02878 7.194 4.59247 7.5464L8.61163 8.47747C10.0031 8.79852 11.405 7.9853 11.8171 6.61807L13.024 2.65352C13.4875 1.11795 14.9036 0.0683927 16.5076 0.0715403C18.1116 0.0746878 19.5235 1.1298 19.981 2.66717L21.1879 6.63172ZM17.7773 3.338L17.7732 3.32422C17.6059 2.76207 17.0896 2.37626 16.5031 2.37511C15.9165 2.37396 15.3987 2.75774 15.2277 3.32435L14.0227 7.28287C13.2604 9.81174 10.6674 11.3159 8.09176 10.7216L4.08602 9.79362C3.50758 9.66325 2.91167 9.92488 2.61617 10.439C2.32066 10.953 2.39447 11.5996 2.79973 12.0355L5.61312 15.0672C7.41002 16.9994 7.41002 19.9913 5.61478 21.9217L2.7962 24.959C2.3915 25.3931 2.31713 26.0403 2.61282 26.555C2.9085 27.0696 3.50513 27.3313 4.07115 27.2032L8.09584 26.2681C10.6679 25.6772 13.2581 27.1797 14.021 29.7022L15.2305 33.6785C15.3989 34.2403 15.916 34.6251 16.5025 34.6251C17.089 34.6251 17.6061 34.2403 17.7778 33.6674L18.983 29.7194C19.747 27.1933 22.3371 25.6909 24.9147 26.283L28.921 27.2139C29.4999 27.3449 30.0965 27.0832 30.3922 26.5686C30.6879 26.054 30.6135 25.4067 30.2053 24.9688L27.3919 21.9371C25.595 20.0049 25.595 17.0131 27.3902 15.0826L30.2068 12.0475C30.6105 11.6133 30.6844 10.9667 30.3888 10.4526C30.0933 9.93854 29.4974 9.67691 28.9324 9.8042L24.9113 10.7357C22.3377 11.3295 19.7446 9.82539 18.9842 7.30255L17.7773 3.338ZM16.5001 22.7233C18.8325 22.7233 20.7233 20.8325 20.7233 18.5001C20.7233 16.1677 18.8325 14.2769 16.5001 14.2769C14.1677 14.2769 12.2769 16.1677 12.2769 18.5001C12.2769 20.8325 14.1677 22.7233 16.5001 22.7233ZM16.5001 20.4197C15.4399 20.4197 14.5805 19.5603 14.5805 18.5001C14.5805 17.4399 15.4399 16.5805 16.5001 16.5805C17.5603 16.5805 18.4198 17.4399 18.4198 18.5001C18.4198 19.5603 17.5603 20.4197 16.5001 20.4197Z" fill="#AE9368"/>
</svg>
