<svg width="19" height="19" viewBox="0 0 19 19" fill="none" xmlns="http://www.w3.org/2000/svg">
<path d="M16.6875 2.77501H16.5V1.43751C16.5 0.906742 16.0683 0.475012 15.5375 0.475012H14.9625C14.4317 0.475012 14 0.906742 14 1.43751V2.77501H5V1.43751C5 0.906742 4.56827 0.475012 4.0375 0.475012H3.4625C2.93173 0.475012 2.5 0.906742 2.5 1.43751V2.77501H2.3125C1.46459 2.77501 0.775 3.46461 0.775 4.31251V16.3875C0.775 17.2354 1.46459 17.925 2.3125 17.925H16.6875C17.5354 17.925 18.225 17.2354 18.225 16.3875V4.31251C18.225 3.46461 17.5354 2.77501 16.6875 2.77501ZM14.775 1.43751C14.775 1.3341 14.8591 1.25001 14.9625 1.25001H15.5375C15.6409 1.25001 15.725 1.3341 15.725 1.43751V4.31251C15.725 4.41592 15.6409 4.50001 15.5375 4.50001H14.9625C14.8591 4.50001 14.775 4.41592 14.775 4.31251V1.43751ZM3.275 1.43751C3.275 1.3341 3.35909 1.25001 3.4625 1.25001H4.0375C4.14091 1.25001 4.225 1.3341 4.225 1.43751V4.31251C4.225 4.41592 4.14091 4.50001 4.0375 4.50001H3.4625C3.35909 4.50001 3.275 4.41592 3.275 4.31251V1.43751ZM2.3125 3.55001H2.5V4.31251C2.5 4.84328 2.93173 5.27501 3.4625 5.27501H4.0375C4.56827 5.27501 5 4.84328 5 4.31251V3.55001H14V4.31251C14 4.84328 14.4317 5.27501 14.9625 5.27501H15.5375C16.0683 5.27501 16.5 4.84328 16.5 4.31251V3.55001H16.6875C17.1078 3.55001 17.45 3.8922 17.45 4.31251V7.37501H1.55V4.31251C1.55 3.8922 1.89219 3.55001 2.3125 3.55001ZM16.6875 17.15H2.3125C1.89219 17.15 1.55 16.8078 1.55 16.3875V8.15001H17.45V16.3875C17.45 16.8078 17.1078 17.15 16.6875 17.15Z" fill="#ACB1C0" stroke="#ACB1C0" stroke-width="0.2"/>
<path d="M6.33755 6.7125H12.6625C12.8768 6.7125 13.05 6.53925 13.05 6.325V4.6C13.05 4.38575 12.8768 4.2125 12.6625 4.2125H6.33755C6.1233 4.2125 5.95005 4.38575 5.95005 4.6V6.325C5.95005 6.53925 6.1233 6.7125 6.33755 6.7125ZM6.72505 4.9875H12.275V5.9375H6.72505V4.9875Z" fill="#ACB1C0" stroke="#ACB1C0" stroke-width="0.2"/>
<path d="M8.77293 13.5228L7.29943 11.8983L6.36353 12.9301L8.34943 15.1196C8.47295 15.2575 8.6417 15.3334 8.81724 15.3334C8.82728 15.3334 8.83704 15.3334 8.84708 15.3327C9.03296 15.3233 9.20644 15.2285 9.32642 15.0714L12.6363 10.6924L11.6188 9.75763L8.77293 13.5228Z" fill="#ACB1C0"/>
</svg>
