<svg width="18" height="18" viewBox="0 0 18 18" fill="none" xmlns="http://www.w3.org/2000/svg">
<path d="M8.80084 3.3261L8.78051 3.27389H8.99992C9.22419 3.27389 9.40599 3.45569 9.40599 3.67997V8.62595L12.5458 11.774L8.80084 3.3261ZM8.80084 3.3261C8.67731 3.39574 8.59389 3.52817 8.59389 3.68009V8.80009C8.59389 8.90582 8.63221 9.0125 8.70979 9.09008L8.70992 9.09021L11.9737 12.3462C11.9737 12.3462 11.9738 12.3463 11.9738 12.3463C12.1324 12.5048 12.3873 12.5047 12.5458 12.3462C12.7044 12.1876 12.7044 11.9328 12.546 11.7742L8.80084 3.3261ZM8.99997 0.714014C4.53728 0.714014 0.913965 4.33724 0.913965 8.80001C0.913965 13.2627 4.53719 16.886 8.99997 16.886C13.4626 16.886 17.086 13.2626 17.086 8.80001C17.086 4.33742 13.4627 0.714014 8.99997 0.714014ZM8.99997 1.52597C13.0203 1.52597 16.274 4.77972 16.274 8.79997C16.274 12.8202 13.0202 16.074 8.99997 16.074C4.97959 16.074 1.72597 12.8202 1.72597 8.79997C1.72597 4.77959 4.97972 1.52597 8.99997 1.52597Z" fill="#ACB1C0" stroke="#ACB1C0" stroke-width="0.3"/>
</svg>
