<svg width="20" height="20" viewBox="0 0 20 20" fill="none" xmlns="http://www.w3.org/2000/svg">
<path d="M7.39996 2.70398C6.04844 2.70398 4.75223 3.24081 3.7965 4.19653C2.84078 5.15225 2.30396 6.44846 2.30396 7.79998C2.30396 9.1515 2.84078 10.4477 3.7965 11.4034C4.75223 12.3592 6.04844 12.896 7.39996 12.896C8.75148 12.896 10.0477 12.3592 11.0034 11.4034C11.9591 10.4477 12.496 9.1515 12.496 7.79998C12.4944 6.44891 11.9569 5.1537 11.0016 4.19842C10.0463 3.243 8.75107 2.70561 7.39999 2.70402L7.39996 2.70398ZM7.39996 12.064C6.26914 12.064 5.18446 11.6146 4.38485 10.8151C3.58527 10.0155 3.13592 8.93079 3.13592 7.79994C3.13592 6.66909 3.58527 5.58445 4.38485 4.78483C5.18442 3.98526 6.26911 3.53591 7.39996 3.53591C8.53081 3.53591 9.61546 3.98526 10.4151 4.78483C11.2146 5.58441 11.664 6.66909 11.664 7.79994C11.6623 8.93035 11.2125 10.0138 10.4132 10.8132C9.61386 11.6125 8.53036 12.0622 7.39996 12.064Z" fill="#ACB1C0"/>
<path d="M19.6218 17.5489L13.5567 11.4794C14.4722 9.95156 14.7885 8.13839 14.4443 6.39078C14.1 4.64317 13.1198 3.08536 11.6932 2.0187C10.2665 0.952139 8.49498 0.452753 6.72122 0.617148C4.94765 0.781534 3.29799 1.59794 2.09174 2.90842C0.885451 4.21885 0.208039 5.93032 0.190768 7.71136C0.173503 9.49247 0.817554 11.2167 1.99829 12.5503C3.17902 13.884 4.8126 14.7322 6.58283 14.9308C8.35291 15.1296 10.1338 14.6646 11.5808 13.6259L17.5649 19.6059C17.7989 19.8396 18.1161 19.9709 18.4467 19.9709C18.7775 19.9709 19.0947 19.8396 19.3287 19.6059L19.6241 19.3127C19.8575 19.0783 19.9884 18.761 19.988 18.4302C19.9875 18.0996 19.856 17.7825 19.6219 17.5488L19.6218 17.5489ZM1.05553 7.79998C1.05553 6.11737 1.72395 4.50385 2.91367 3.31424C4.1034 2.12463 5.71696 1.45609 7.39942 1.45609C9.08188 1.45609 10.6955 2.12452 11.8852 3.31424C13.0748 4.50396 13.7433 6.11752 13.7433 7.79998C13.7433 9.48244 13.0749 11.0961 11.8852 12.2857C10.6954 13.4753 9.08188 14.1439 7.39942 14.1439C5.7174 14.1421 4.10473 13.4733 2.91516 12.284C1.72585 11.0946 1.05701 9.48188 1.05527 7.79972L1.05553 7.79998ZM19.0353 18.72L18.7357 19.0174C18.6576 19.0962 18.5513 19.1405 18.4403 19.1405C18.3294 19.1405 18.2231 19.0962 18.145 19.0174L12.2315 13.1039C12.5397 12.8217 12.8229 12.5134 13.0779 12.1824L19.0353 18.1353C19.1952 18.2972 19.1952 18.5577 19.0353 18.7197L19.0353 18.72Z" fill="#ACB1C0"/>
<path d="M7.29605 5.14795C6.90995 5.14795 6.53956 5.30131 6.26649 5.57435C5.99343 5.84741 5.84009 6.21767 5.84009 6.60392C5.84009 6.83359 6.02638 7.01988 6.25605 7.01988C6.48587 7.01988 6.67201 6.83358 6.67201 6.60392C6.67201 6.43837 6.73788 6.27964 6.85483 6.1627C6.97191 6.04561 7.13064 5.97988 7.29605 5.97988C7.46159 5.97988 7.62032 6.04561 7.73727 6.1627C7.85435 6.27964 7.92008 6.43837 7.92008 6.60392C7.92008 6.76932 7.85436 6.92805 7.73727 7.04514C7.62033 7.16208 7.4616 7.22795 7.29605 7.22795C7.06637 7.22795 6.88008 7.4141 6.88008 7.64391V8.68391C6.88008 8.91359 7.06638 9.09987 7.29605 9.09987C7.52587 9.09987 7.71201 8.91358 7.71201 8.68391V7.99952C8.16311 7.86545 8.52161 7.52175 8.67438 7.07674C8.82716 6.63162 8.75549 6.14018 8.48199 5.75732C8.20836 5.37456 7.76655 5.1475 7.29602 5.14795L7.29605 5.14795Z" fill="#ACB1C0"/>
<path d="M7.81588 10.14C7.81588 10.4271 7.58316 10.66 7.29588 10.66C7.00875 10.66 6.77588 10.4271 6.77588 10.14C6.77588 9.85286 7.00875 9.62 7.29588 9.62C7.58316 9.62 7.81588 9.85286 7.81588 10.14Z" fill="#ACB1C0"/>
</svg>
