<svg width="22" height="8" viewBox="0 0 22 8" fill="none" xmlns="http://www.w3.org/2000/svg">
<path d="M19.5828 0.978392C19.8892 0.564032 20.4737 0.476352 20.8882 0.782768C21.3026 1.08933 21.3903 1.67369 21.0837 2.08825C21.0243 2.16856 20.9425 2.2659 20.8412 2.37653L20.6137 2.61465C20.5718 2.657 20.5281 2.70043 20.4825 2.74496L20.1884 3.02403C20.1362 3.07231 20.0823 3.12137 20.027 3.17122L19.679 3.47637L19.3023 3.7909L18.9024 4.10794C18.6295 4.31872 18.3449 4.52686 18.0564 4.72358C15.8498 6.2275 13.47 7.13326 11 7.13326C8.52997 7.13326 6.14997 6.22746 3.94357 4.72358C3.36621 4.32998 2.80481 3.89062 2.32013 3.47562L1.97201 3.1703C1.91669 3.12046 1.86279 3.0714 1.81044 3.02312L1.51638 2.7439L1.26544 2.49046C1.11372 2.33155 0.994662 2.19421 0.915754 2.08718C0.609662 1.6725 0.697942 1.0881 1.11279 0.78202C1.52747 0.476084 2.11187 0.564208 2.41795 0.979052C2.45623 1.03108 2.5167 1.10108 2.59607 1.1853L2.77904 1.37171L3.00669 1.58936C3.04794 1.62796 3.09091 1.66749 3.13545 1.70796L3.41967 1.96014C3.46967 2.00358 3.52107 2.04764 3.57357 2.09233L3.90139 2.36405C3.95811 2.40999 4.01561 2.45593 4.07404 2.50218L4.43295 2.77842C4.61623 2.91592 4.80467 3.05139 4.99499 3.18106C6.91719 4.49122 8.95451 5.26654 11.0002 5.26654C13.0459 5.26654 15.083 4.49122 17.0054 3.18106C17.1957 3.05138 17.384 2.91591 17.5673 2.77858L17.926 2.50234C17.9845 2.45624 18.042 2.41015 18.0987 2.36437L18.4263 2.09265L18.7265 1.83218L18.9932 1.58984L19.221 1.37202L19.4043 1.1853C19.4837 1.10093 19.5442 1.03074 19.5828 0.978392Z" fill="#ACB1C0"/>
</svg>
