<svg width="40" height="40" viewBox="0 0 40 40" fill="none" xmlns="http://www.w3.org/2000/svg">
<path fill-rule="evenodd" clip-rule="evenodd" d="M20 40C31.0457 40 40 31.0457 40 20C40 8.9543 31.0457 0 20 0C8.9543 0 0 8.9543 0 20C0 31.0457 8.9543 40 20 40Z" fill="#AE9368"/>
<path fill-rule="evenodd" clip-rule="evenodd" d="M10.7021 12.1364C8.6953 14.2547 11.148 19.9407 16.0537 24.9573C21.0707 29.8627 26.7565 32.3155 28.8746 30.3089L31.5502 27.6333C32.1078 27.0757 32.2192 26.0725 31.5502 25.6265L27.3138 22.9509C26.6449 22.6163 25.8644 22.3933 25.4184 22.9509L23.6346 24.7346C20.8474 22.8392 18.1717 20.1636 16.2765 17.3765L18.0602 15.5927C18.6178 15.1468 18.3948 14.3662 18.0602 13.6973L15.3846 9.46088C14.9387 8.79195 13.9352 8.90332 13.3778 9.46088L10.7022 12.1365L10.7021 12.1364Z" fill="white"/>
</svg>
