<svg width="34" height="20" viewBox="0 0 34 20" fill="none" xmlns="http://www.w3.org/2000/svg">
<g clip-path="url(#clip0_3_9)">
<path d="M33.6 0H0V19.6H33.6V0Z" fill="#CB1D23"/>
<path d="M3.2 7.1L3.9 5.1L2.2 3.9H4.3L4.9 2L5.5 3.9H7.6L5.9 5.1L6.6 7.1L4.9 5.9L3.2 7.1Z" fill="#F7DE29"/>
<path d="M8.99999 8.1L9.59999 8.4L10.1 7.8V8.6L10.8 8.9L9.99999 9.1V9.8L9.59999 9.2L8.89999 9.3L9.29999 8.8L8.99999 8.1Z" fill="#F7DE29"/>
<path d="M12.7 4.4L12 4.3L11.6 4.9L11.5 4.2L10.8 4L11.4 3.7L11.3 3L11.9 3.5L12.5 3.2L12.2 3.8L12.7 4.4Z" fill="#F7DE29"/>
<path d="M11.1 7.7L11.4 7L10.8 6.6H11.5L11.7 5.9L12 6.6H12.7L12.1 7L12.3 7.7L11.7 7.3L11.1 7.7Z" fill="#F7DE29"/>
<path d="M9 1.2L9.7 1.6L10.2 1L10.1 1.8L10.8 2.1L10 2.2L9.9 3L9.6 2.3L8.8 2.4L9.3 1.9L9 1.2Z" fill="#F7DE29"/>
</g>
<defs>
<clipPath id="clip0_3_9">
<rect width="33.6" height="19.6" fill="white"/>
</clipPath>
</defs>
</svg>
