<svg width="34" height="20" viewBox="0 0 34 20" fill="none" xmlns="http://www.w3.org/2000/svg">
<g clip-path="url(#clip0_4_19)">
<path d="M33.6 18.1H0V19.6H33.6V18.1Z" fill="#CB001C"/>
<path d="M33.6 16.6H0V18.1H33.6V16.6Z" fill="white"/>
<path d="M33.6 15.1H0V16.6H33.6V15.1Z" fill="#CB001C"/>
<path d="M33.6 13.6H0V15.1H33.6V13.6Z" fill="white"/>
<path d="M33.6 12H0V13.5H33.6V12Z" fill="#CB001C"/>
<path d="M33.6 10.5H0V12H33.6V10.5Z" fill="white"/>
<path d="M33.6 9H0V10.5H33.6V9Z" fill="#CB001C"/>
<path d="M33.6 7.5H0V9H33.6V7.5Z" fill="white"/>
<path d="M33.6 6H0V7.5H33.6V6Z" fill="#CB001C"/>
<path d="M33.6 4.5H0V6H33.6V4.5Z" fill="white"/>
<path d="M33.6 3H0V4.5H33.6V3Z" fill="#CB001C"/>
<path d="M33.6 1.5H0V3H33.6V1.5Z" fill="white"/>
<path d="M33.6 0H0V1.5H33.6V0Z" fill="#CB001C"/>
<path d="M15.3 0H0V10.5H15.3V0Z" fill="#2A3560"/>
<path d="M1.4 1.2L1.5 1.6H1.9L1.6 1.8L1.7 2.2L1.4 2L1 2.2L1.2 1.8L0.800003 1.6H1.3L1.4 1.2Z" fill="white"/>
<path d="M1.4 2.9L1.5 3.3H1.9L1.6 3.6L1.7 4L1.4 3.7L1 4L1.2 3.6L0.800003 3.3H1.3L1.4 2.9Z" fill="white"/>
<path d="M1.4 4.7L1.5 5.1H1.9L1.6 5.3L1.7 5.7L1.4 5.5L1 5.7L1.2 5.3L0.800003 5.1H1.3L1.4 4.7Z" fill="white"/>
<path d="M1.4 6.4L1.5 6.8H1.9L1.6 7.1L1.7 7.5L1.4 7.2L1 7.5L1.2 7.1L0.800003 6.8H1.3L1.4 6.4Z" fill="white"/>
<path d="M1.4 8.2L1.5 8.6H1.9L1.6 8.8L1.7 9.2L1.4 9L1 9.2L1.2 8.8L0.800003 8.6H1.3L1.4 8.2Z" fill="white"/>
<path d="M2.60001 2.1L2.70001 2.5H3.20001L2.80001 2.7L2.90001 3.1L2.60001 2.9L2.30001 3.1L2.40001 2.7L2.10001 2.5H2.50001L2.60001 2.1Z" fill="white"/>
<path d="M2.60001 3.8L2.70001 4.2H3.20001L2.80001 4.5L2.90001 4.9L2.60001 4.6L2.30001 4.9L2.40001 4.5L2.10001 4.2H2.50001L2.60001 3.8Z" fill="white"/>
<path d="M2.60001 5.6L2.70001 6H3.20001L2.80001 6.3L2.90001 6.7L2.60001 6.4L2.30001 6.7L2.40001 6.3L2.10001 6H2.50001L2.60001 5.6Z" fill="white"/>
<path d="M2.60001 7.4L2.70001 7.8H3.20001L2.80001 8L2.90001 8.4L2.60001 8.2L2.30001 8.4L2.40001 8L2.10001 7.8H2.50001L2.60001 7.4Z" fill="white"/>
<path d="M3.8 1.2L4 1.6H4.4L4.1 1.8L4.2 2.2L3.8 2L3.5 2.2L3.6 1.8L3.3 1.6H3.7L3.8 1.2Z" fill="white"/>
<path d="M3.8 2.9L4 3.3H4.4L4.1 3.6L4.2 4L3.8 3.7L3.5 4L3.6 3.6L3.3 3.3H3.7L3.8 2.9Z" fill="white"/>
<path d="M3.8 4.7L4 5.1H4.4L4.1 5.3L4.2 5.7L3.8 5.5L3.5 5.7L3.6 5.3L3.3 5.1H3.7L3.8 4.7Z" fill="white"/>
<path d="M3.8 6.4L4 6.8H4.4L4.1 7.1L4.2 7.5L3.8 7.2L3.5 7.5L3.6 7.1L3.3 6.8H3.7L3.8 6.4Z" fill="white"/>
<path d="M3.8 8.2L4 8.6H4.4L4.1 8.8L4.2 9.2L3.8 9L3.5 9.2L3.6 8.8L3.3 8.6H3.7L3.8 8.2Z" fill="white"/>
<path d="M5.1 2.1L5.2 2.5H5.6L5.3 2.7L5.4 3.1L5.1 2.9L4.7 3.1L4.9 2.7L4.5 2.5H4.9L5.1 2.1Z" fill="white"/>
<path d="M5.1 3.8L5.2 4.2H5.6L5.3 4.5L5.4 4.9L5.1 4.6L4.7 4.9L4.9 4.5L4.5 4.2H4.9L5.1 3.8Z" fill="white"/>
<path d="M5.1 5.6L5.2 6H5.6L5.3 6.3L5.4 6.7L5.1 6.4L4.7 6.7L4.9 6.3L4.5 6H4.9L5.1 5.6Z" fill="white"/>
<path d="M5.1 7.4L5.2 7.8H5.6L5.3 8L5.4 8.4L5.1 8.2L4.7 8.4L4.9 8L4.5 7.8H4.9L5.1 7.4Z" fill="white"/>
<path d="M6.3 1.2L6.4 1.6H6.9L6.5 1.8L6.7 2.2L6.3 2L6 2.2L6.1 1.8L5.8 1.6H6.2L6.3 1.2Z" fill="white"/>
<path d="M6.3 2.9L6.4 3.3H6.9L6.5 3.6L6.7 4L6.3 3.7L6 4L6.1 3.6L5.8 3.3H6.2L6.3 2.9Z" fill="white"/>
<path d="M6.3 4.7L6.4 5.1H6.9L6.5 5.3L6.7 5.7L6.3 5.5L6 5.7L6.1 5.3L5.8 5.1H6.2L6.3 4.7Z" fill="white"/>
<path d="M6.3 6.4L6.4 6.8H6.9L6.5 7.1L6.7 7.5L6.3 7.2L6 7.5L6.1 7.1L5.8 6.8H6.2L6.3 6.4Z" fill="white"/>
<path d="M6.3 8.2L6.4 8.6H6.9L6.5 8.8L6.7 9.2L6.3 9L6 9.2L6.1 8.8L5.8 8.6H6.2L6.3 8.2Z" fill="white"/>
<path d="M7.5 2.1L7.7 2.5H8.1L7.8 2.7L7.9 3.1L7.5 2.9L7.2 3.1L7.3 2.7L7 2.5H7.4L7.5 2.1Z" fill="white"/>
<path d="M7.5 3.8L7.7 4.2H8.1L7.8 4.5L7.9 4.9L7.5 4.6L7.2 4.9L7.3 4.5L7 4.2H7.4L7.5 3.8Z" fill="white"/>
<path d="M7.5 5.6L7.7 6H8.1L7.8 6.3L7.9 6.7L7.5 6.4L7.2 6.7L7.3 6.3L7 6H7.4L7.5 5.6Z" fill="white"/>
<path d="M7.5 7.4L7.7 7.8H8.1L7.8 8L7.9 8.4L7.5 8.2L7.2 8.4L7.3 8L7 7.8H7.4L7.5 7.4Z" fill="white"/>
<path d="M8.8 1.2L8.9 1.6H9.3L9 1.8L9.1 2.2L8.8 2L8.4 2.2L8.6 1.8L8.2 1.6H8.7L8.8 1.2Z" fill="white"/>
<path d="M8.8 2.9L8.9 3.3H9.3L9 3.6L9.1 4L8.8 3.7L8.4 4L8.6 3.6L8.2 3.3H8.7L8.8 2.9Z" fill="white"/>
<path d="M8.8 4.7L8.9 5.1H9.3L9 5.3L9.1 5.7L8.8 5.5L8.4 5.7L8.6 5.3L8.2 5.1H8.7L8.8 4.7Z" fill="white"/>
<path d="M8.8 6.4L8.9 6.8H9.3L9 7.1L9.1 7.5L8.8 7.2L8.4 7.5L8.6 7.1L8.2 6.8H8.7L8.8 6.4Z" fill="white"/>
<path d="M8.8 8.2L8.9 8.6H9.3L9 8.8L9.1 9.2L8.8 9L8.4 9.2L8.6 8.8L8.2 8.6H8.7L8.8 8.2Z" fill="white"/>
<path d="M10 2.1L10.1 2.5H10.6L10.2 2.7L10.3 3.1L10 2.9L9.7 3.1L9.8 2.7L9.5 2.5H9.9L10 2.1Z" fill="white"/>
<path d="M10 3.8L10.1 4.2H10.6L10.2 4.5L10.3 4.9L10 4.6L9.7 4.9L9.8 4.5L9.5 4.2H9.9L10 3.8Z" fill="white"/>
<path d="M10 5.6L10.1 6H10.6L10.2 6.3L10.3 6.7L10 6.4L9.7 6.7L9.8 6.3L9.5 6H9.9L10 5.6Z" fill="white"/>
<path d="M10 7.4L10.1 7.8H10.6L10.2 8L10.3 8.4L10 8.2L9.7 8.4L9.8 8L9.5 7.8H9.9L10 7.4Z" fill="white"/>
<path d="M11.3 1.2L11.4 1.6H11.8L11.5 1.8L11.6 2.2L11.3 2L10.9 2.2L11 1.8L10.7 1.6H11.1L11.3 1.2Z" fill="white"/>
<path d="M11.3 2.9L11.4 3.3H11.8L11.5 3.6L11.6 4L11.3 3.7L10.9 4L11 3.6L10.7 3.3H11.1L11.3 2.9Z" fill="white"/>
<path d="M11.3 4.7L11.4 5.1H11.8L11.5 5.3L11.6 5.7L11.3 5.5L10.9 5.7L11 5.3L10.7 5.1H11.1L11.3 4.7Z" fill="white"/>
<path d="M11.3 6.4L11.4 6.8H11.8L11.5 7.1L11.6 7.5L11.3 7.2L10.9 7.5L11 7.1L10.7 6.8H11.1L11.3 6.4Z" fill="white"/>
<path d="M11.3 8.2L11.4 8.6H11.8L11.5 8.8L11.6 9.2L11.3 9L10.9 9.2L11 8.8L10.7 8.6H11.1L11.3 8.2Z" fill="white"/>
<path d="M12.5 2.1L12.6 2.5H13L12.7 2.7L12.8 3.1L12.5 2.9L12.1 3.1L12.3 2.7L11.9 2.5H12.3L12.5 2.1Z" fill="white"/>
<path d="M12.5 3.8L12.6 4.2H13L12.7 4.5L12.8 4.9L12.5 4.6L12.1 4.9L12.3 4.5L11.9 4.2H12.3L12.5 3.8Z" fill="white"/>
<path d="M12.5 5.6L12.6 6H13L12.7 6.3L12.8 6.7L12.5 6.4L12.1 6.7L12.3 6.3L11.9 6H12.3L12.5 5.6Z" fill="white"/>
<path d="M12.5 7.4L12.6 7.8H13L12.7 8L12.8 8.4L12.5 8.2L12.1 8.4L12.3 8L11.9 7.8H12.3L12.5 7.4Z" fill="white"/>
<path d="M13.7 1.2L13.8 1.6H14.3L13.9 1.8L14.1 2.2L13.7 2L13.4 2.2L13.5 1.8L13.2 1.6H13.6L13.7 1.2Z" fill="white"/>
<path d="M13.7 2.9L13.8 3.3H14.3L13.9 3.6L14.1 4L13.7 3.7L13.4 4L13.5 3.6L13.2 3.3H13.6L13.7 2.9Z" fill="white"/>
<path d="M13.7 4.7L13.8 5.1H14.3L13.9 5.3L14.1 5.7L13.7 5.5L13.4 5.7L13.5 5.3L13.2 5.1H13.6L13.7 4.7Z" fill="white"/>
<path d="M13.7 6.4L13.8 6.8H14.3L13.9 7.1L14.1 7.5L13.7 7.2L13.4 7.5L13.5 7.1L13.2 6.8H13.6L13.7 6.4Z" fill="white"/>
<path d="M13.7 8.2L13.8 8.6H14.3L13.9 8.8L14.1 9.2L13.7 9L13.4 9.2L13.5 8.8L13.2 8.6H13.6L13.7 8.2Z" fill="white"/>
</g>
<defs>
<clipPath id="clip0_4_19">
<rect width="33.6" height="19.6" fill="white"/>
</clipPath>
</defs>
</svg>
